<?xml version="1.0" encoding="UTF-8" standalone="no"?>
<!DOCTYPE svg PUBLIC "-//W3C//DTD SVG 1.1//EN"
 "http://www.w3.org/Graphics/SVG/1.1/DTD/svg11.dtd">
<!-- Generated by graphviz version 2.47.1 (20210418.0311)
 -->
<!-- Title: snakemake_dag Pages: 1 -->
<svg width="2726pt" height="409pt"
 viewBox="0.00 0.00 2726.00 409.00" xmlns="http://www.w3.org/2000/svg" xmlns:xlink="http://www.w3.org/1999/xlink">
<g id="graph0" class="graph" transform="scale(1 1) rotate(0) translate(4 405)">
<title>snakemake_dag</title>
<polygon fill="white" stroke="transparent" points="-4,4 -4,-405 2722,-405 2722,4 -4,4"/>
<!-- 0 -->
<g id="node1" class="node">
<title>0</title>
<path fill="none" stroke="#56d8c1" stroke-width="2" d="M1401.5,-36C1401.5,-36 1316.5,-36 1316.5,-36 1310.5,-36 1304.5,-30 1304.5,-24 1304.5,-24 1304.5,-12 1304.5,-12 1304.5,-6 1310.5,0 1316.5,0 1316.5,0 1401.5,0 1401.5,0 1407.5,0 1413.5,-6 1413.5,-12 1413.5,-12 1413.5,-24 1413.5,-24 1413.5,-30 1407.5,-36 1401.5,-36"/>
<text text-anchor="middle" x="1359" y="-15.5" font-family="sans" font-size="10.00">lines_multiplicities</text>
</g>
<!-- 1 -->
<g id="node2" class="node">
<title>1</title>
<path fill="none" stroke="#70d856" stroke-width="2" d="M1946,-113C1946,-113 1836,-113 1836,-113 1830,-113 1824,-107 1824,-101 1824,-101 1824,-84 1824,-84 1824,-78 1830,-72 1836,-72 1836,-72 1946,-72 1946,-72 1952,-72 1958,-78 1958,-84 1958,-84 1958,-101 1958,-101 1958,-107 1952,-113 1946,-113"/>
<text text-anchor="middle" x="1891" y="-101" font-family="sans" font-size="10.00">line_extra_multiplicities</text>
<text text-anchor="middle" x="1891" y="-90" font-family="sans" font-size="10.00">extra: ExtraHadron</text>
<text text-anchor="middle" x="1891" y="-79" font-family="sans" font-size="10.00">line: HHGamma</text>
</g>
<!-- 1&#45;&gt;0 -->
<g id="edge1" class="edge">
<title>1&#45;&gt;0</title>
<path fill="none" stroke="grey" stroke-width="2" d="M1823.97,-73.78C1820.95,-73.14 1817.95,-72.55 1815,-72 1676.87,-46.37 1512.77,-30.91 1423.95,-23.76"/>
<polygon fill="grey" stroke="grey" stroke-width="2" points="1424,-20.26 1413.76,-22.95 1423.45,-27.23 1424,-20.26"/>
</g>
<!-- 2 -->
<g id="node3" class="node">
<title>2</title>
<path fill="none" stroke="#d85656" stroke-width="2" d="M1147.5,-185C1147.5,-185 1094.5,-185 1094.5,-185 1088.5,-185 1082.5,-179 1082.5,-173 1082.5,-173 1082.5,-161 1082.5,-161 1082.5,-155 1088.5,-149 1094.5,-149 1094.5,-149 1147.5,-149 1147.5,-149 1153.5,-149 1159.5,-155 1159.5,-161 1159.5,-161 1159.5,-173 1159.5,-173 1159.5,-179 1153.5,-185 1147.5,-185"/>
<text text-anchor="middle" x="1121" y="-164.5" font-family="sans" font-size="10.00">Tuple_Moore</text>
</g>
<!-- 2&#45;&gt;1 -->
<g id="edge19" class="edge">
<title>2&#45;&gt;1</title>
<path fill="none" stroke="grey" stroke-width="2" d="M1159.73,-151.01C1162.5,-150.24 1165.28,-149.56 1168,-149 1446.88,-92.08 1528.47,-155.48 1813.38,-113.08"/>
<polygon fill="grey" stroke="grey" stroke-width="2" points="1814.24,-116.49 1823.6,-111.52 1813.18,-109.57 1814.24,-116.49"/>
</g>
<!-- 26 -->
<g id="node27" class="node">
<title>26</title>
<path fill="none" stroke="#70d856" stroke-width="2" d="M2098,-113C2098,-113 1988,-113 1988,-113 1982,-113 1976,-107 1976,-101 1976,-101 1976,-84 1976,-84 1976,-78 1982,-72 1988,-72 1988,-72 2098,-72 2098,-72 2104,-72 2110,-78 2110,-84 2110,-84 2110,-101 2110,-101 2110,-107 2104,-113 2098,-113"/>
<text text-anchor="middle" x="2043" y="-101" font-family="sans" font-size="10.00">line_extra_multiplicities</text>
<text text-anchor="middle" x="2043" y="-90" font-family="sans" font-size="10.00">extra: ExtraKs0</text>
<text text-anchor="middle" x="2043" y="-79" font-family="sans" font-size="10.00">line: HHGamma</text>
</g>
<!-- 2&#45;&gt;26 -->
<g id="edge43" class="edge">
<title>2&#45;&gt;26</title>
<path fill="none" stroke="grey" stroke-width="2" d="M1159.72,-150.97C1162.5,-150.21 1165.28,-149.54 1168,-149 1513.43,-80.4 1613.57,-163.87 1965.65,-113.02"/>
<polygon fill="grey" stroke="grey" stroke-width="2" points="1966.22,-116.48 1975.6,-111.56 1965.2,-109.55 1966.22,-116.48"/>
</g>
<!-- 27 -->
<g id="node28" class="node">
<title>27</title>
<path fill="none" stroke="#70d856" stroke-width="2" d="M2250,-113C2250,-113 2140,-113 2140,-113 2134,-113 2128,-107 2128,-101 2128,-101 2128,-84 2128,-84 2128,-78 2134,-72 2140,-72 2140,-72 2250,-72 2250,-72 2256,-72 2262,-78 2262,-84 2262,-84 2262,-101 2262,-101 2262,-107 2256,-113 2250,-113"/>
<text text-anchor="middle" x="2195" y="-101" font-family="sans" font-size="10.00">line_extra_multiplicities</text>
<text text-anchor="middle" x="2195" y="-90" font-family="sans" font-size="10.00">extra: ExtraLambda</text>
<text text-anchor="middle" x="2195" y="-79" font-family="sans" font-size="10.00">line: HHGamma</text>
</g>
<!-- 2&#45;&gt;27 -->
<g id="edge49" class="edge">
<title>2&#45;&gt;27</title>
<path fill="none" stroke="grey" stroke-width="2" d="M1159.72,-150.95C1162.5,-150.2 1165.27,-149.53 1168,-149 1579.92,-68.73 1698.59,-172.26 2117.65,-113.02"/>
<polygon fill="grey" stroke="grey" stroke-width="2" points="2118.21,-116.47 2127.61,-111.59 2117.21,-109.54 2118.21,-116.47"/>
</g>
<!-- 28 -->
<g id="node29" class="node">
<title>28</title>
<path fill="none" stroke="#70d856" stroke-width="2" d="M2402,-113C2402,-113 2292,-113 2292,-113 2286,-113 2280,-107 2280,-101 2280,-101 2280,-84 2280,-84 2280,-78 2286,-72 2292,-72 2292,-72 2402,-72 2402,-72 2408,-72 2414,-78 2414,-84 2414,-84 2414,-101 2414,-101 2414,-107 2408,-113 2402,-113"/>
<text text-anchor="middle" x="2347" y="-101" font-family="sans" font-size="10.00">line_extra_multiplicities</text>
<text text-anchor="middle" x="2347" y="-90" font-family="sans" font-size="10.00">extra: ExtraGamma</text>
<text text-anchor="middle" x="2347" y="-79" font-family="sans" font-size="10.00">line: HHGamma</text>
</g>
<!-- 2&#45;&gt;28 -->
<g id="edge55" class="edge">
<title>2&#45;&gt;28</title>
<path fill="none" stroke="grey" stroke-width="2" d="M1159.72,-150.93C1162.49,-150.18 1165.27,-149.52 1168,-149 1646.38,-57.08 1783.57,-180.65 2269.53,-113.03"/>
<polygon fill="grey" stroke="grey" stroke-width="2" points="2270.2,-116.47 2279.61,-111.61 2269.22,-109.54 2270.2,-116.47"/>
</g>
<!-- 29 -->
<g id="node30" class="node">
<title>29</title>
<path fill="none" stroke="#70d856" stroke-width="2" d="M2554,-113C2554,-113 2444,-113 2444,-113 2438,-113 2432,-107 2432,-101 2432,-101 2432,-84 2432,-84 2432,-78 2438,-72 2444,-72 2444,-72 2554,-72 2554,-72 2560,-72 2566,-78 2566,-84 2566,-84 2566,-101 2566,-101 2566,-107 2560,-113 2554,-113"/>
<text text-anchor="middle" x="2499" y="-101" font-family="sans" font-size="10.00">line_extra_multiplicities</text>
<text text-anchor="middle" x="2499" y="-90" font-family="sans" font-size="10.00">extra: ExtraPi0Merged</text>
<text text-anchor="middle" x="2499" y="-79" font-family="sans" font-size="10.00">line: HHGamma</text>
</g>
<!-- 2&#45;&gt;29 -->
<g id="edge61" class="edge">
<title>2&#45;&gt;29</title>
<path fill="none" stroke="grey" stroke-width="2" d="M1159.72,-150.92C1162.49,-150.17 1165.27,-149.52 1168,-149 1438.88,-97.5 2130.27,-150.64 2421.42,-113"/>
<polygon fill="grey" stroke="grey" stroke-width="2" points="2422.17,-116.43 2431.61,-111.62 2421.23,-109.49 2422.17,-116.43"/>
</g>
<!-- 30 -->
<g id="node31" class="node">
<title>30</title>
<path fill="none" stroke="#70d856" stroke-width="2" d="M2706,-113C2706,-113 2596,-113 2596,-113 2590,-113 2584,-107 2584,-101 2584,-101 2584,-84 2584,-84 2584,-78 2590,-72 2596,-72 2596,-72 2706,-72 2706,-72 2712,-72 2718,-78 2718,-84 2718,-84 2718,-101 2718,-101 2718,-107 2712,-113 2706,-113"/>
<text text-anchor="middle" x="2651" y="-101" font-family="sans" font-size="10.00">line_extra_multiplicities</text>
<text text-anchor="middle" x="2651" y="-90" font-family="sans" font-size="10.00">extra: ExtraPi0Resolved</text>
<text text-anchor="middle" x="2651" y="-79" font-family="sans" font-size="10.00">line: HHGamma</text>
</g>
<!-- 2&#45;&gt;30 -->
<g id="edge67" class="edge">
<title>2&#45;&gt;30</title>
<path fill="none" stroke="grey" stroke-width="2" d="M1159.71,-150.91C1162.49,-150.17 1165.27,-149.51 1168,-149 1472.2,-91.66 2249.07,-154.82 2573.67,-112.97"/>
<polygon fill="grey" stroke="grey" stroke-width="2" points="2574.17,-116.43 2583.61,-111.63 2573.24,-109.49 2574.17,-116.43"/>
</g>
<!-- 31 -->
<g id="node32" class="node">
<title>31</title>
<path fill="none" stroke="#70d856" stroke-width="2" d="M122,-113C122,-113 12,-113 12,-113 6,-113 0,-107 0,-101 0,-101 0,-84 0,-84 0,-78 6,-72 12,-72 12,-72 122,-72 122,-72 128,-72 134,-78 134,-84 134,-84 134,-101 134,-101 134,-107 128,-113 122,-113"/>
<text text-anchor="middle" x="67" y="-101" font-family="sans" font-size="10.00">line_extra_multiplicities</text>
<text text-anchor="middle" x="67" y="-90" font-family="sans" font-size="10.00">extra: ExtraHadron</text>
<text text-anchor="middle" x="67" y="-79" font-family="sans" font-size="10.00">line: HHGammaEE</text>
</g>
<!-- 2&#45;&gt;31 -->
<g id="edge73" class="edge">
<title>2&#45;&gt;31</title>
<path fill="none" stroke="grey" stroke-width="2" d="M1082.38,-164.92C927.27,-160.45 348.68,-142.24 144.42,-113.02"/>
<polygon fill="grey" stroke="grey" stroke-width="2" points="144.81,-109.54 134.4,-111.53 143.78,-116.46 144.81,-109.54"/>
</g>
<!-- 32 -->
<g id="node33" class="node">
<title>32</title>
<path fill="none" stroke="#70d856" stroke-width="2" d="M274,-113C274,-113 164,-113 164,-113 158,-113 152,-107 152,-101 152,-101 152,-84 152,-84 152,-78 158,-72 164,-72 164,-72 274,-72 274,-72 280,-72 286,-78 286,-84 286,-84 286,-101 286,-101 286,-107 280,-113 274,-113"/>
<text text-anchor="middle" x="219" y="-101" font-family="sans" font-size="10.00">line_extra_multiplicities</text>
<text text-anchor="middle" x="219" y="-90" font-family="sans" font-size="10.00">extra: ExtraKs0</text>
<text text-anchor="middle" x="219" y="-79" font-family="sans" font-size="10.00">line: HHGammaEE</text>
</g>
<!-- 2&#45;&gt;32 -->
<g id="edge79" class="edge">
<title>2&#45;&gt;32</title>
<path fill="none" stroke="grey" stroke-width="2" d="M1082.43,-166.08C965.29,-165.78 603.4,-160.87 296.39,-113.07"/>
<polygon fill="grey" stroke="grey" stroke-width="2" points="296.83,-109.59 286.41,-111.49 295.74,-116.51 296.83,-109.59"/>
</g>
<!-- 33 -->
<g id="node34" class="node">
<title>33</title>
<path fill="none" stroke="#70d856" stroke-width="2" d="M426,-113C426,-113 316,-113 316,-113 310,-113 304,-107 304,-101 304,-101 304,-84 304,-84 304,-78 310,-72 316,-72 316,-72 426,-72 426,-72 432,-72 438,-78 438,-84 438,-84 438,-101 438,-101 438,-107 432,-113 426,-113"/>
<text text-anchor="middle" x="371" y="-101" font-family="sans" font-size="10.00">line_extra_multiplicities</text>
<text text-anchor="middle" x="371" y="-90" font-family="sans" font-size="10.00">extra: ExtraLambda</text>
<text text-anchor="middle" x="371" y="-79" font-family="sans" font-size="10.00">line: HHGammaEE</text>
</g>
<!-- 2&#45;&gt;33 -->
<g id="edge85" class="edge">
<title>2&#45;&gt;33</title>
<path fill="none" stroke="grey" stroke-width="2" d="M1082.34,-165.29C980.14,-162.92 694.34,-153.09 448.21,-113.04"/>
<polygon fill="grey" stroke="grey" stroke-width="2" points="448.44,-109.53 438,-111.36 447.3,-116.44 448.44,-109.53"/>
</g>
<!-- 34 -->
<g id="node35" class="node">
<title>34</title>
<path fill="none" stroke="#70d856" stroke-width="2" d="M578,-113C578,-113 468,-113 468,-113 462,-113 456,-107 456,-101 456,-101 456,-84 456,-84 456,-78 462,-72 468,-72 468,-72 578,-72 578,-72 584,-72 590,-78 590,-84 590,-84 590,-101 590,-101 590,-107 584,-113 578,-113"/>
<text text-anchor="middle" x="523" y="-101" font-family="sans" font-size="10.00">line_extra_multiplicities</text>
<text text-anchor="middle" x="523" y="-90" font-family="sans" font-size="10.00">extra: ExtraGamma</text>
<text text-anchor="middle" x="523" y="-79" font-family="sans" font-size="10.00">line: HHGammaEE</text>
</g>
<!-- 2&#45;&gt;34 -->
<g id="edge91" class="edge">
<title>2&#45;&gt;34</title>
<path fill="none" stroke="grey" stroke-width="2" d="M1082.42,-164.07C997.06,-159.37 785.74,-145.39 599.96,-113.03"/>
<polygon fill="grey" stroke="grey" stroke-width="2" points="600.47,-109.57 590.02,-111.28 599.26,-116.46 600.47,-109.57"/>
</g>
<!-- 35 -->
<g id="node36" class="node">
<title>35</title>
<path fill="none" stroke="#70d856" stroke-width="2" d="M730,-113C730,-113 620,-113 620,-113 614,-113 608,-107 608,-101 608,-101 608,-84 608,-84 608,-78 614,-72 620,-72 620,-72 730,-72 730,-72 736,-72 742,-78 742,-84 742,-84 742,-101 742,-101 742,-107 736,-113 730,-113"/>
<text text-anchor="middle" x="675" y="-101" font-family="sans" font-size="10.00">line_extra_multiplicities</text>
<text text-anchor="middle" x="675" y="-90" font-family="sans" font-size="10.00">extra: ExtraPi0Merged</text>
<text text-anchor="middle" x="675" y="-79" font-family="sans" font-size="10.00">line: HHGammaEE</text>
</g>
<!-- 2&#45;&gt;35 -->
<g id="edge97" class="edge">
<title>2&#45;&gt;35</title>
<path fill="none" stroke="grey" stroke-width="2" d="M1082.42,-161.88C1016.58,-154.53 878.22,-137.79 751.89,-113.07"/>
<polygon fill="grey" stroke="grey" stroke-width="2" points="752.54,-109.63 742.05,-111.12 751.18,-116.5 752.54,-109.63"/>
</g>
<!-- 36 -->
<g id="node37" class="node">
<title>36</title>
<path fill="none" stroke="#70d856" stroke-width="2" d="M882,-113C882,-113 772,-113 772,-113 766,-113 760,-107 760,-101 760,-101 760,-84 760,-84 760,-78 766,-72 772,-72 772,-72 882,-72 882,-72 888,-72 894,-78 894,-84 894,-84 894,-101 894,-101 894,-107 888,-113 882,-113"/>
<text text-anchor="middle" x="827" y="-101" font-family="sans" font-size="10.00">line_extra_multiplicities</text>
<text text-anchor="middle" x="827" y="-90" font-family="sans" font-size="10.00">extra: ExtraPi0Resolved</text>
<text text-anchor="middle" x="827" y="-79" font-family="sans" font-size="10.00">line: HHGammaEE</text>
</g>
<!-- 2&#45;&gt;36 -->
<g id="edge103" class="edge">
<title>2&#45;&gt;36</title>
<path fill="none" stroke="grey" stroke-width="2" d="M1082.37,-156.77C1040.81,-146.79 972.51,-130.31 904.2,-113.29"/>
<polygon fill="grey" stroke="grey" stroke-width="2" points="904.68,-109.8 894.13,-110.77 902.98,-116.59 904.68,-109.8"/>
</g>
<!-- 37 -->
<g id="node38" class="node">
<title>37</title>
<path fill="none" stroke="#70d856" stroke-width="2" d="M1034,-113C1034,-113 924,-113 924,-113 918,-113 912,-107 912,-101 912,-101 912,-84 912,-84 912,-78 918,-72 924,-72 924,-72 1034,-72 1034,-72 1040,-72 1046,-78 1046,-84 1046,-84 1046,-101 1046,-101 1046,-107 1040,-113 1034,-113"/>
<text text-anchor="middle" x="979" y="-101" font-family="sans" font-size="10.00">line_extra_multiplicities</text>
<text text-anchor="middle" x="979" y="-90" font-family="sans" font-size="10.00">extra: ExtraHadron</text>
<text text-anchor="middle" x="979" y="-79" font-family="sans" font-size="10.00">line: HHHGamma</text>
</g>
<!-- 2&#45;&gt;37 -->
<g id="edge109" class="edge">
<title>2&#45;&gt;37</title>
<path fill="none" stroke="grey" stroke-width="2" d="M1087.35,-148.82C1069.14,-139.52 1046.35,-127.89 1026.38,-117.69"/>
<polygon fill="grey" stroke="grey" stroke-width="2" points="1027.93,-114.55 1017.43,-113.12 1024.74,-120.78 1027.93,-114.55"/>
</g>
<!-- 38 -->
<g id="node39" class="node">
<title>38</title>
<path fill="none" stroke="#70d856" stroke-width="2" d="M1186,-113C1186,-113 1076,-113 1076,-113 1070,-113 1064,-107 1064,-101 1064,-101 1064,-84 1064,-84 1064,-78 1070,-72 1076,-72 1076,-72 1186,-72 1186,-72 1192,-72 1198,-78 1198,-84 1198,-84 1198,-101 1198,-101 1198,-107 1192,-113 1186,-113"/>
<text text-anchor="middle" x="1131" y="-101" font-family="sans" font-size="10.00">line_extra_multiplicities</text>
<text text-anchor="middle" x="1131" y="-90" font-family="sans" font-size="10.00">extra: ExtraKs0</text>
<text text-anchor="middle" x="1131" y="-79" font-family="sans" font-size="10.00">line: HHHGamma</text>
</g>
<!-- 2&#45;&gt;38 -->
<g id="edge115" class="edge">
<title>2&#45;&gt;38</title>
<path fill="none" stroke="grey" stroke-width="2" d="M1123.37,-148.82C1124.43,-141.11 1125.72,-131.8 1126.93,-123.03"/>
<polygon fill="grey" stroke="grey" stroke-width="2" points="1130.39,-123.5 1128.29,-113.12 1123.46,-122.55 1130.39,-123.5"/>
</g>
<!-- 39 -->
<g id="node40" class="node">
<title>39</title>
<path fill="none" stroke="#70d856" stroke-width="2" d="M1338,-113C1338,-113 1228,-113 1228,-113 1222,-113 1216,-107 1216,-101 1216,-101 1216,-84 1216,-84 1216,-78 1222,-72 1228,-72 1228,-72 1338,-72 1338,-72 1344,-72 1350,-78 1350,-84 1350,-84 1350,-101 1350,-101 1350,-107 1344,-113 1338,-113"/>
<text text-anchor="middle" x="1283" y="-101" font-family="sans" font-size="10.00">line_extra_multiplicities</text>
<text text-anchor="middle" x="1283" y="-90" font-family="sans" font-size="10.00">extra: ExtraLambda</text>
<text text-anchor="middle" x="1283" y="-79" font-family="sans" font-size="10.00">line: HHHGamma</text>
</g>
<!-- 2&#45;&gt;39 -->
<g id="edge121" class="edge">
<title>2&#45;&gt;39</title>
<path fill="none" stroke="grey" stroke-width="2" d="M1159.39,-148.82C1180.44,-139.4 1206.86,-127.57 1229.87,-117.28"/>
<polygon fill="grey" stroke="grey" stroke-width="2" points="1231.46,-120.4 1239.16,-113.12 1228.6,-114.01 1231.46,-120.4"/>
</g>
<!-- 40 -->
<g id="node41" class="node">
<title>40</title>
<path fill="none" stroke="#70d856" stroke-width="2" d="M1490,-113C1490,-113 1380,-113 1380,-113 1374,-113 1368,-107 1368,-101 1368,-101 1368,-84 1368,-84 1368,-78 1374,-72 1380,-72 1380,-72 1490,-72 1490,-72 1496,-72 1502,-78 1502,-84 1502,-84 1502,-101 1502,-101 1502,-107 1496,-113 1490,-113"/>
<text text-anchor="middle" x="1435" y="-101" font-family="sans" font-size="10.00">line_extra_multiplicities</text>
<text text-anchor="middle" x="1435" y="-90" font-family="sans" font-size="10.00">extra: ExtraGamma</text>
<text text-anchor="middle" x="1435" y="-79" font-family="sans" font-size="10.00">line: HHHGamma</text>
</g>
<!-- 2&#45;&gt;40 -->
<g id="edge127" class="edge">
<title>2&#45;&gt;40</title>
<path fill="none" stroke="grey" stroke-width="2" d="M1159.57,-151.49C1162.41,-150.6 1165.24,-149.75 1168,-149 1248.32,-127.06 1272.91,-131.38 1358.08,-113.12"/>
<polygon fill="grey" stroke="grey" stroke-width="2" points="1358.9,-116.52 1367.92,-110.96 1357.4,-109.68 1358.9,-116.52"/>
</g>
<!-- 41 -->
<g id="node42" class="node">
<title>41</title>
<path fill="none" stroke="#70d856" stroke-width="2" d="M1642,-113C1642,-113 1532,-113 1532,-113 1526,-113 1520,-107 1520,-101 1520,-101 1520,-84 1520,-84 1520,-78 1526,-72 1532,-72 1532,-72 1642,-72 1642,-72 1648,-72 1654,-78 1654,-84 1654,-84 1654,-101 1654,-101 1654,-107 1648,-113 1642,-113"/>
<text text-anchor="middle" x="1587" y="-101" font-family="sans" font-size="10.00">line_extra_multiplicities</text>
<text text-anchor="middle" x="1587" y="-90" font-family="sans" font-size="10.00">extra: ExtraPi0Merged</text>
<text text-anchor="middle" x="1587" y="-79" font-family="sans" font-size="10.00">line: HHHGamma</text>
</g>
<!-- 2&#45;&gt;41 -->
<g id="edge133" class="edge">
<title>2&#45;&gt;41</title>
<path fill="none" stroke="grey" stroke-width="2" d="M1159.51,-151.23C1162.36,-150.4 1165.21,-149.64 1168,-149 1314.18,-115.42 1358.25,-139.05 1509.84,-113.05"/>
<polygon fill="grey" stroke="grey" stroke-width="2" points="1510.74,-116.44 1519.98,-111.26 1509.52,-109.55 1510.74,-116.44"/>
</g>
<!-- 42 -->
<g id="node43" class="node">
<title>42</title>
<path fill="none" stroke="#70d856" stroke-width="2" d="M1794,-113C1794,-113 1684,-113 1684,-113 1678,-113 1672,-107 1672,-101 1672,-101 1672,-84 1672,-84 1672,-78 1678,-72 1684,-72 1684,-72 1794,-72 1794,-72 1800,-72 1806,-78 1806,-84 1806,-84 1806,-101 1806,-101 1806,-107 1800,-113 1794,-113"/>
<text text-anchor="middle" x="1739" y="-101" font-family="sans" font-size="10.00">line_extra_multiplicities</text>
<text text-anchor="middle" x="1739" y="-90" font-family="sans" font-size="10.00">extra: ExtraPi0Resolved</text>
<text text-anchor="middle" x="1739" y="-79" font-family="sans" font-size="10.00">line: HHHGamma</text>
</g>
<!-- 2&#45;&gt;42 -->
<g id="edge139" class="edge">
<title>2&#45;&gt;42</title>
<path fill="none" stroke="grey" stroke-width="2" d="M1159.74,-151.06C1162.51,-150.28 1165.28,-149.58 1168,-149 1380.48,-103.75 1443.4,-147.2 1661.42,-113.09"/>
<polygon fill="grey" stroke="grey" stroke-width="2" points="1662.27,-116.5 1671.59,-111.46 1661.16,-109.59 1662.27,-116.5"/>
</g>
<!-- 3 -->
<g id="node4" class="node">
<title>3</title>
<path fill="none" stroke="#56d8d8" stroke-width="2" stroke-dasharray="5,2" d="M1143,-257C1143,-257 1099,-257 1099,-257 1093,-257 1087,-251 1087,-245 1087,-245 1087,-233 1087,-233 1087,-227 1093,-221 1099,-221 1099,-221 1143,-221 1143,-221 1149,-221 1155,-227 1155,-233 1155,-233 1155,-245 1155,-245 1155,-251 1149,-257 1143,-257"/>
<text text-anchor="middle" x="1121" y="-236.5" font-family="sans" font-size="10.00">Dst_Moore</text>
</g>
<!-- 3&#45;&gt;2 -->
<g id="edge25" class="edge">
<title>3&#45;&gt;2</title>
<path fill="none" stroke="grey" stroke-width="2" d="M1121,-220.7C1121,-212.98 1121,-203.71 1121,-195.11"/>
<polygon fill="grey" stroke="grey" stroke-width="2" points="1124.5,-195.1 1121,-185.1 1117.5,-195.1 1124.5,-195.1"/>
</g>
<!-- 4 -->
<g id="node5" class="node">
<title>4</title>
<path fill="none" stroke="#59d856" stroke-width="2" stroke-dasharray="5,2" d="M1137,-329C1137,-329 1105,-329 1105,-329 1099,-329 1093,-323 1093,-317 1093,-317 1093,-305 1093,-305 1093,-299 1099,-293 1105,-293 1105,-293 1137,-293 1137,-293 1143,-293 1149,-299 1149,-305 1149,-305 1149,-317 1149,-317 1149,-323 1143,-329 1137,-329"/>
<text text-anchor="middle" x="1121" y="-308.5" font-family="sans" font-size="10.00">get_PFN</text>
</g>
<!-- 4&#45;&gt;3 -->
<g id="edge26" class="edge">
<title>4&#45;&gt;3</title>
<path fill="none" stroke="grey" stroke-width="2" d="M1121,-292.7C1121,-284.98 1121,-275.71 1121,-267.11"/>
<polygon fill="grey" stroke="grey" stroke-width="2" points="1124.5,-267.1 1121,-257.1 1117.5,-267.1 1124.5,-267.1"/>
</g>
<!-- 5 -->
<g id="node6" class="node">
<title>5</title>
<path fill="none" stroke="#bed856" stroke-width="2" stroke-dasharray="5,2" d="M1139.5,-401C1139.5,-401 1102.5,-401 1102.5,-401 1096.5,-401 1090.5,-395 1090.5,-389 1090.5,-389 1090.5,-377 1090.5,-377 1090.5,-371 1096.5,-365 1102.5,-365 1102.5,-365 1139.5,-365 1139.5,-365 1145.5,-365 1151.5,-371 1151.5,-377 1151.5,-377 1151.5,-389 1151.5,-389 1151.5,-395 1145.5,-401 1139.5,-401"/>
<text text-anchor="middle" x="1121" y="-386" font-family="sans" font-size="10.00">get_LFN</text>
<text text-anchor="middle" x="1121" y="-375" font-family="sans" font-size="10.00">MC: KstG</text>
</g>
<!-- 5&#45;&gt;4 -->
<g id="edge27" class="edge">
<title>5&#45;&gt;4</title>
<path fill="none" stroke="grey" stroke-width="2" d="M1121,-364.7C1121,-356.98 1121,-347.71 1121,-339.11"/>
<polygon fill="grey" stroke="grey" stroke-width="2" points="1124.5,-339.1 1121,-329.1 1117.5,-339.1 1124.5,-339.1"/>
</g>
<!-- 6 -->
<g id="node7" class="node">
<title>6</title>
<path fill="none" stroke="#d85656" stroke-width="2" d="M1242.5,-185C1242.5,-185 1189.5,-185 1189.5,-185 1183.5,-185 1177.5,-179 1177.5,-173 1177.5,-173 1177.5,-161 1177.5,-161 1177.5,-155 1183.5,-149 1189.5,-149 1189.5,-149 1242.5,-149 1242.5,-149 1248.5,-149 1254.5,-155 1254.5,-161 1254.5,-161 1254.5,-173 1254.5,-173 1254.5,-179 1248.5,-185 1242.5,-185"/>
<text text-anchor="middle" x="1216" y="-164.5" font-family="sans" font-size="10.00">Tuple_Moore</text>
</g>
<!-- 6&#45;&gt;1 -->
<g id="edge20" class="edge">
<title>6&#45;&gt;1</title>
<path fill="none" stroke="grey" stroke-width="2" d="M1254.51,-151.33C1257.69,-150.44 1260.88,-149.64 1264,-149 1501.09,-100.24 1570.75,-150.26 1813.4,-113.09"/>
<polygon fill="grey" stroke="grey" stroke-width="2" points="1814.25,-116.49 1823.59,-111.49 1813.17,-109.58 1814.25,-116.49"/>
</g>
<!-- 6&#45;&gt;26 -->
<g id="edge44" class="edge">
<title>6&#45;&gt;26</title>
<path fill="none" stroke="grey" stroke-width="2" d="M1254.5,-151.29C1257.69,-150.4 1260.88,-149.62 1264,-149 1567.58,-88.8 1655.82,-158.58 1965.43,-113.06"/>
<polygon fill="grey" stroke="grey" stroke-width="2" points="1966.23,-116.48 1975.6,-111.54 1965.19,-109.56 1966.23,-116.48"/>
</g>
<!-- 6&#45;&gt;27 -->
<g id="edge50" class="edge">
<title>6&#45;&gt;27</title>
<path fill="none" stroke="grey" stroke-width="2" d="M1254.76,-151.18C1257.86,-150.33 1260.96,-149.59 1264,-149 1634.12,-77.35 1740.87,-166.96 2117.52,-113.04"/>
<polygon fill="grey" stroke="grey" stroke-width="2" points="2118.21,-116.48 2127.6,-111.57 2117.2,-109.55 2118.21,-116.48"/>
</g>
<!-- 6&#45;&gt;28 -->
<g id="edge56" class="edge">
<title>6&#45;&gt;28</title>
<path fill="none" stroke="grey" stroke-width="2" d="M1254.76,-151.16C1257.85,-150.32 1260.96,-149.58 1264,-149 1700.62,-65.91 1825.87,-175.34 2269.4,-113.05"/>
<polygon fill="grey" stroke="grey" stroke-width="2" points="2270.2,-116.47 2279.61,-111.59 2269.21,-109.54 2270.2,-116.47"/>
</g>
<!-- 6&#45;&gt;29 -->
<g id="edge62" class="edge">
<title>6&#45;&gt;29</title>
<path fill="none" stroke="grey" stroke-width="2" d="M1254.75,-151.14C1257.85,-150.3 1260.96,-149.57 1264,-149 1514.03,-102.02 2151.43,-148.04 2421.38,-113"/>
<polygon fill="grey" stroke="grey" stroke-width="2" points="2422.17,-116.43 2431.61,-111.61 2421.23,-109.49 2422.17,-116.43"/>
</g>
<!-- 6&#45;&gt;30 -->
<g id="edge68" class="edge">
<title>6&#45;&gt;30</title>
<path fill="none" stroke="grey" stroke-width="2" d="M1254.75,-151.13C1257.85,-150.29 1260.96,-149.57 1264,-149 1547.31,-96.3 2269.91,-152.19 2573.43,-113"/>
<polygon fill="grey" stroke="grey" stroke-width="2" points="2574.17,-116.43 2583.61,-111.62 2573.23,-109.49 2574.17,-116.43"/>
</g>
<!-- 6&#45;&gt;31 -->
<g id="edge74" class="edge">
<title>6&#45;&gt;31</title>
<path fill="none" stroke="grey" stroke-width="2" d="M1177.24,-151.16C1174.15,-150.31 1171.04,-149.58 1168,-149 723.45,-64.54 596.04,-176.36 144.44,-113.03"/>
<polygon fill="grey" stroke="grey" stroke-width="2" points="144.79,-109.54 134.39,-111.6 143.8,-116.47 144.79,-109.54"/>
</g>
<!-- 6&#45;&gt;32 -->
<g id="edge80" class="edge">
<title>6&#45;&gt;32</title>
<path fill="none" stroke="grey" stroke-width="2" d="M1177.24,-151.18C1174.14,-150.33 1171.04,-149.59 1168,-149 789.98,-75.99 681.05,-167.97 296.4,-113.03"/>
<polygon fill="grey" stroke="grey" stroke-width="2" points="296.79,-109.55 286.4,-111.57 295.79,-116.48 296.79,-109.55"/>
</g>
<!-- 6&#45;&gt;33 -->
<g id="edge86" class="edge">
<title>6&#45;&gt;33</title>
<path fill="none" stroke="grey" stroke-width="2" d="M1177.5,-151.28C1174.32,-150.4 1171.12,-149.62 1168,-149 856.47,-87.43 766.07,-159.6 448.35,-113.03"/>
<polygon fill="grey" stroke="grey" stroke-width="2" points="448.81,-109.56 438.4,-111.54 447.77,-116.48 448.81,-109.56"/>
</g>
<!-- 6&#45;&gt;34 -->
<g id="edge92" class="edge">
<title>6&#45;&gt;34</title>
<path fill="none" stroke="grey" stroke-width="2" d="M1177.49,-151.33C1174.31,-150.43 1171.12,-149.64 1168,-149 923.02,-98.89 851.16,-151.25 600.55,-113.07"/>
<polygon fill="grey" stroke="grey" stroke-width="2" points="600.83,-109.58 590.41,-111.5 599.75,-116.49 600.83,-109.58"/>
</g>
<!-- 6&#45;&gt;35 -->
<g id="edge98" class="edge">
<title>6&#45;&gt;35</title>
<path fill="none" stroke="grey" stroke-width="2" d="M1177.47,-151.41C1174.3,-150.49 1171.11,-149.67 1168,-149 989.39,-110.32 936.25,-143.03 752.02,-113"/>
<polygon fill="grey" stroke="grey" stroke-width="2" points="752.45,-109.53 742.01,-111.33 751.29,-116.43 752.45,-109.53"/>
</g>
<!-- 6&#45;&gt;36 -->
<g id="edge104" class="edge">
<title>6&#45;&gt;36</title>
<path fill="none" stroke="grey" stroke-width="2" d="M1177.43,-151.57C1174.27,-150.62 1171.09,-149.75 1168,-149 1055.64,-121.78 1021.51,-135.03 904.14,-113.09"/>
<polygon fill="grey" stroke="grey" stroke-width="2" points="904.52,-109.6 894.04,-111.15 903.2,-116.47 904.52,-109.6"/>
</g>
<!-- 6&#45;&gt;37 -->
<g id="edge110" class="edge">
<title>6&#45;&gt;37</title>
<path fill="none" stroke="grey" stroke-width="2" d="M1177.29,-152.09C1174.15,-151.02 1171.03,-149.98 1168,-149 1131.43,-137.16 1090.53,-125.02 1056.17,-115.12"/>
<polygon fill="grey" stroke="grey" stroke-width="2" points="1056.77,-111.66 1046.19,-112.26 1054.83,-118.38 1056.77,-111.66"/>
</g>
<!-- 6&#45;&gt;38 -->
<g id="edge116" class="edge">
<title>6&#45;&gt;38</title>
<path fill="none" stroke="grey" stroke-width="2" d="M1195.86,-148.82C1185.64,-140.11 1173.03,-129.35 1161.64,-119.64"/>
<polygon fill="grey" stroke="grey" stroke-width="2" points="1163.88,-116.95 1154,-113.12 1159.34,-122.27 1163.88,-116.95"/>
</g>
<!-- 6&#45;&gt;39 -->
<g id="edge122" class="edge">
<title>6&#45;&gt;39</title>
<path fill="none" stroke="grey" stroke-width="2" d="M1231.88,-148.82C1239.69,-140.36 1249.3,-129.97 1258.07,-120.48"/>
<polygon fill="grey" stroke="grey" stroke-width="2" points="1260.65,-122.84 1264.87,-113.12 1255.51,-118.09 1260.65,-122.84"/>
</g>
<!-- 6&#45;&gt;40 -->
<g id="edge128" class="edge">
<title>6&#45;&gt;40</title>
<path fill="none" stroke="grey" stroke-width="2" d="M1254.74,-152.18C1257.87,-151.09 1260.99,-150.02 1264,-149 1296.67,-137.91 1333.01,-126.05 1363.76,-116.16"/>
<polygon fill="grey" stroke="grey" stroke-width="2" points="1365.08,-119.41 1373.53,-113.01 1362.94,-112.74 1365.08,-119.41"/>
</g>
<!-- 6&#45;&gt;41 -->
<g id="edge134" class="edge">
<title>6&#45;&gt;41</title>
<path fill="none" stroke="grey" stroke-width="2" d="M1254.57,-151.61C1257.74,-150.65 1260.91,-149.76 1264,-149 1368.54,-123.14 1400.37,-134.12 1509.83,-113.11"/>
<polygon fill="grey" stroke="grey" stroke-width="2" points="1510.82,-116.48 1519.95,-111.12 1509.46,-109.61 1510.82,-116.48"/>
</g>
<!-- 6&#45;&gt;42 -->
<g id="edge140" class="edge">
<title>6&#45;&gt;42</title>
<path fill="none" stroke="grey" stroke-width="2" d="M1254.53,-151.42C1257.71,-150.5 1260.89,-149.68 1264,-149 1434.8,-111.67 1485.7,-142.08 1662.12,-112.98"/>
<polygon fill="grey" stroke="grey" stroke-width="2" points="1662.71,-116.43 1671.99,-111.32 1661.55,-109.53 1662.71,-116.43"/>
</g>
<!-- 7 -->
<g id="node8" class="node">
<title>7</title>
<path fill="none" stroke="#56d8d8" stroke-width="2" d="M1238,-257C1238,-257 1194,-257 1194,-257 1188,-257 1182,-251 1182,-245 1182,-245 1182,-233 1182,-233 1182,-227 1188,-221 1194,-221 1194,-221 1238,-221 1238,-221 1244,-221 1250,-227 1250,-233 1250,-233 1250,-245 1250,-245 1250,-251 1244,-257 1238,-257"/>
<text text-anchor="middle" x="1216" y="-236.5" font-family="sans" font-size="10.00">Dst_Moore</text>
</g>
<!-- 7&#45;&gt;6 -->
<g id="edge28" class="edge">
<title>7&#45;&gt;6</title>
<path fill="none" stroke="grey" stroke-width="2" d="M1216,-220.7C1216,-212.98 1216,-203.71 1216,-195.11"/>
<polygon fill="grey" stroke="grey" stroke-width="2" points="1219.5,-195.1 1216,-185.1 1212.5,-195.1 1219.5,-195.1"/>
</g>
<!-- 8 -->
<g id="node9" class="node">
<title>8</title>
<path fill="none" stroke="#59d856" stroke-width="2" stroke-dasharray="5,2" d="M1232,-329C1232,-329 1200,-329 1200,-329 1194,-329 1188,-323 1188,-317 1188,-317 1188,-305 1188,-305 1188,-299 1194,-293 1200,-293 1200,-293 1232,-293 1232,-293 1238,-293 1244,-299 1244,-305 1244,-305 1244,-317 1244,-317 1244,-323 1238,-329 1232,-329"/>
<text text-anchor="middle" x="1216" y="-308.5" font-family="sans" font-size="10.00">get_PFN</text>
</g>
<!-- 8&#45;&gt;7 -->
<g id="edge29" class="edge">
<title>8&#45;&gt;7</title>
<path fill="none" stroke="grey" stroke-width="2" d="M1216,-292.7C1216,-284.98 1216,-275.71 1216,-267.11"/>
<polygon fill="grey" stroke="grey" stroke-width="2" points="1219.5,-267.1 1216,-257.1 1212.5,-267.1 1219.5,-267.1"/>
</g>
<!-- 9 -->
<g id="node10" class="node">
<title>9</title>
<path fill="none" stroke="#bed856" stroke-width="2" stroke-dasharray="5,2" d="M1234,-401C1234,-401 1198,-401 1198,-401 1192,-401 1186,-395 1186,-389 1186,-389 1186,-377 1186,-377 1186,-371 1192,-365 1198,-365 1198,-365 1234,-365 1234,-365 1240,-365 1246,-371 1246,-377 1246,-377 1246,-389 1246,-389 1246,-395 1240,-401 1234,-401"/>
<text text-anchor="middle" x="1216" y="-386" font-family="sans" font-size="10.00">get_LFN</text>
<text text-anchor="middle" x="1216" y="-375" font-family="sans" font-size="10.00">MC: PhiG</text>
</g>
<!-- 9&#45;&gt;8 -->
<g id="edge30" class="edge">
<title>9&#45;&gt;8</title>
<path fill="none" stroke="grey" stroke-width="2" d="M1216,-364.7C1216,-356.98 1216,-347.71 1216,-339.11"/>
<polygon fill="grey" stroke="grey" stroke-width="2" points="1219.5,-339.1 1216,-329.1 1212.5,-339.1 1219.5,-339.1"/>
</g>
<!-- 10 -->
<g id="node11" class="node">
<title>10</title>
<path fill="none" stroke="#d85656" stroke-width="2" d="M1337.5,-185C1337.5,-185 1284.5,-185 1284.5,-185 1278.5,-185 1272.5,-179 1272.5,-173 1272.5,-173 1272.5,-161 1272.5,-161 1272.5,-155 1278.5,-149 1284.5,-149 1284.5,-149 1337.5,-149 1337.5,-149 1343.5,-149 1349.5,-155 1349.5,-161 1349.5,-161 1349.5,-173 1349.5,-173 1349.5,-179 1343.5,-185 1337.5,-185"/>
<text text-anchor="middle" x="1311" y="-164.5" font-family="sans" font-size="10.00">Tuple_Moore</text>
</g>
<!-- 10&#45;&gt;1 -->
<g id="edge21" class="edge">
<title>10&#45;&gt;1</title>
<path fill="none" stroke="grey" stroke-width="2" d="M1349.52,-151.38C1352.7,-150.47 1355.89,-149.66 1359,-149 1554.64,-107.39 1612.6,-145.13 1813.99,-112.99"/>
<polygon fill="grey" stroke="grey" stroke-width="2" points="1814.69,-116.43 1824,-111.36 1813.56,-109.52 1814.69,-116.43"/>
</g>
<!-- 10&#45;&gt;26 -->
<g id="edge45" class="edge">
<title>10&#45;&gt;26</title>
<path fill="none" stroke="grey" stroke-width="2" d="M1349.51,-151.31C1352.69,-150.42 1355.88,-149.63 1359,-149 1621.07,-95.94 1697.69,-153.39 1965.58,-113.05"/>
<polygon fill="grey" stroke="grey" stroke-width="2" points="1966.24,-116.49 1975.6,-111.51 1965.18,-109.57 1966.24,-116.49"/>
</g>
<!-- 10&#45;&gt;27 -->
<g id="edge51" class="edge">
<title>10&#45;&gt;27</title>
<path fill="none" stroke="grey" stroke-width="2" d="M1349.5,-151.27C1352.68,-150.39 1355.88,-149.61 1359,-149 1687.58,-84.49 1782.75,-161.74 2117.62,-113.03"/>
<polygon fill="grey" stroke="grey" stroke-width="2" points="2118.22,-116.48 2127.6,-111.55 2117.2,-109.56 2118.22,-116.48"/>
</g>
<!-- 10&#45;&gt;28 -->
<g id="edge57" class="edge">
<title>10&#45;&gt;28</title>
<path fill="none" stroke="grey" stroke-width="2" d="M1349.76,-151.17C1352.86,-150.33 1355.96,-149.58 1359,-149 1754.05,-73.06 1867.74,-170.1 2269.46,-113.05"/>
<polygon fill="grey" stroke="grey" stroke-width="2" points="2270.21,-116.47 2279.61,-111.58 2269.21,-109.55 2270.21,-116.47"/>
</g>
<!-- 10&#45;&gt;29 -->
<g id="edge63" class="edge">
<title>10&#45;&gt;29</title>
<path fill="none" stroke="grey" stroke-width="2" d="M1349.76,-151.15C1352.85,-150.31 1355.96,-149.58 1359,-149 1820.61,-61.61 1952.77,-178.52 2421.53,-113.03"/>
<polygon fill="grey" stroke="grey" stroke-width="2" points="2422.2,-116.47 2431.61,-111.6 2421.22,-109.54 2422.2,-116.47"/>
</g>
<!-- 10&#45;&gt;30 -->
<g id="edge69" class="edge">
<title>10&#45;&gt;30</title>
<path fill="none" stroke="grey" stroke-width="2" d="M1349.75,-151.14C1352.85,-150.3 1355.96,-149.57 1359,-149 1621.48,-99.88 2290.72,-149.58 2573.31,-113.01"/>
<polygon fill="grey" stroke="grey" stroke-width="2" points="2574.17,-116.43 2583.61,-111.62 2573.23,-109.49 2574.17,-116.43"/>
</g>
<!-- 10&#45;&gt;31 -->
<g id="edge75" class="edge">
<title>10&#45;&gt;31</title>
<path fill="none" stroke="grey" stroke-width="2" d="M1272.28,-150.93C1269.51,-150.18 1266.73,-149.52 1264,-149 777.8,-55.7 638.39,-181.62 144.64,-113.05"/>
<polygon fill="grey" stroke="grey" stroke-width="2" points="144.78,-109.54 134.39,-111.61 143.8,-116.47 144.78,-109.54"/>
</g>
<!-- 10&#45;&gt;32 -->
<g id="edge81" class="edge">
<title>10&#45;&gt;32</title>
<path fill="none" stroke="grey" stroke-width="2" d="M1272.28,-150.95C1269.5,-150.19 1266.73,-149.53 1264,-149 844.27,-67.36 723.38,-173.23 296.53,-113.04"/>
<polygon fill="grey" stroke="grey" stroke-width="2" points="296.79,-109.54 286.39,-111.59 295.8,-116.47 296.79,-109.54"/>
</g>
<!-- 10&#45;&gt;33 -->
<g id="edge87" class="edge">
<title>10&#45;&gt;33</title>
<path fill="none" stroke="grey" stroke-width="2" d="M1272.28,-150.97C1269.5,-150.21 1266.72,-149.54 1264,-149 910.68,-79.02 808.36,-164.87 448.31,-113.02"/>
<polygon fill="grey" stroke="grey" stroke-width="2" points="448.8,-109.55 438.4,-111.56 447.78,-116.48 448.8,-109.55"/>
</g>
<!-- 10&#45;&gt;34 -->
<g id="edge93" class="edge">
<title>10&#45;&gt;34</title>
<path fill="none" stroke="grey" stroke-width="2" d="M1272.27,-151C1269.5,-150.23 1266.72,-149.55 1264,-149 977.2,-90.69 893.42,-156.49 600.47,-113.05"/>
<polygon fill="grey" stroke="grey" stroke-width="2" points="600.81,-109.56 590.4,-111.53 599.77,-116.49 600.81,-109.56"/>
</g>
<!-- 10&#45;&gt;35 -->
<g id="edge99" class="edge">
<title>10&#45;&gt;35</title>
<path fill="none" stroke="grey" stroke-width="2" d="M1272.26,-151.05C1269.49,-150.27 1266.72,-149.57 1264,-149 1043.67,-102.37 978.52,-148.17 752.59,-113.09"/>
<polygon fill="grey" stroke="grey" stroke-width="2" points="752.84,-109.58 742.41,-111.47 751.74,-116.5 752.84,-109.58"/>
</g>
<!-- 10&#45;&gt;36 -->
<g id="edge105" class="edge">
<title>10&#45;&gt;36</title>
<path fill="none" stroke="grey" stroke-width="2" d="M1272.5,-151.22C1269.65,-150.39 1266.79,-149.63 1264,-149 1109.99,-114.04 1063.66,-140 904.18,-113.05"/>
<polygon fill="grey" stroke="grey" stroke-width="2" points="904.47,-109.54 894.02,-111.28 903.27,-116.44 904.47,-109.54"/>
</g>
<!-- 10&#45;&gt;37 -->
<g id="edge111" class="edge">
<title>10&#45;&gt;37</title>
<path fill="none" stroke="grey" stroke-width="2" d="M1272.44,-151.44C1269.6,-150.56 1266.77,-149.73 1264,-149 1175.91,-125.68 1148.95,-132.24 1055.89,-113.09"/>
<polygon fill="grey" stroke="grey" stroke-width="2" points="1056.57,-109.65 1046.07,-111.02 1055.13,-116.5 1056.57,-109.65"/>
</g>
<!-- 10&#45;&gt;38 -->
<g id="edge117" class="edge">
<title>10&#45;&gt;38</title>
<path fill="none" stroke="grey" stroke-width="2" d="M1272.39,-150.45C1248.08,-140.66 1216.26,-127.84 1188.96,-116.85"/>
<polygon fill="grey" stroke="grey" stroke-width="2" points="1190.1,-113.53 1179.52,-113.04 1187.49,-120.02 1190.1,-113.53"/>
</g>
<!-- 10&#45;&gt;39 -->
<g id="edge123" class="edge">
<title>10&#45;&gt;39</title>
<path fill="none" stroke="grey" stroke-width="2" d="M1304.36,-148.82C1301.32,-140.95 1297.64,-131.4 1294.19,-122.46"/>
<polygon fill="grey" stroke="grey" stroke-width="2" points="1297.44,-121.19 1290.58,-113.12 1290.92,-123.71 1297.44,-121.19"/>
</g>
<!-- 10&#45;&gt;40 -->
<g id="edge129" class="edge">
<title>10&#45;&gt;40</title>
<path fill="none" stroke="grey" stroke-width="2" d="M1340.39,-148.82C1356,-139.69 1375.47,-128.31 1392.68,-118.24"/>
<polygon fill="grey" stroke="grey" stroke-width="2" points="1394.58,-121.19 1401.44,-113.12 1391.04,-115.15 1394.58,-121.19"/>
</g>
<!-- 10&#45;&gt;41 -->
<g id="edge135" class="edge">
<title>10&#45;&gt;41</title>
<path fill="none" stroke="grey" stroke-width="2" d="M1349.66,-151.91C1352.8,-150.88 1355.95,-149.9 1359,-149 1422.6,-130.26 1441.88,-129.65 1509.94,-113.22"/>
<polygon fill="grey" stroke="grey" stroke-width="2" points="1511,-116.57 1519.88,-110.79 1509.34,-109.77 1511,-116.57"/>
</g>
<!-- 10&#45;&gt;42 -->
<g id="edge141" class="edge">
<title>10&#45;&gt;42</title>
<path fill="none" stroke="grey" stroke-width="2" d="M1349.55,-151.52C1352.72,-150.58 1355.9,-149.72 1359,-149 1488.39,-118.82 1527.43,-137.06 1662.11,-113.02"/>
<polygon fill="grey" stroke="grey" stroke-width="2" points="1662.76,-116.46 1671.97,-111.21 1661.5,-109.57 1662.76,-116.46"/>
</g>
<!-- 11 -->
<g id="node12" class="node">
<title>11</title>
<path fill="none" stroke="#56d8d8" stroke-width="2" stroke-dasharray="5,2" d="M1333,-257C1333,-257 1289,-257 1289,-257 1283,-257 1277,-251 1277,-245 1277,-245 1277,-233 1277,-233 1277,-227 1283,-221 1289,-221 1289,-221 1333,-221 1333,-221 1339,-221 1345,-227 1345,-233 1345,-233 1345,-245 1345,-245 1345,-251 1339,-257 1333,-257"/>
<text text-anchor="middle" x="1311" y="-236.5" font-family="sans" font-size="10.00">Dst_Moore</text>
</g>
<!-- 11&#45;&gt;10 -->
<g id="edge31" class="edge">
<title>11&#45;&gt;10</title>
<path fill="none" stroke="grey" stroke-width="2" d="M1311,-220.7C1311,-212.98 1311,-203.71 1311,-195.11"/>
<polygon fill="grey" stroke="grey" stroke-width="2" points="1314.5,-195.1 1311,-185.1 1307.5,-195.1 1314.5,-195.1"/>
</g>
<!-- 12 -->
<g id="node13" class="node">
<title>12</title>
<path fill="none" stroke="#59d856" stroke-width="2" stroke-dasharray="5,2" d="M1327,-329C1327,-329 1295,-329 1295,-329 1289,-329 1283,-323 1283,-317 1283,-317 1283,-305 1283,-305 1283,-299 1289,-293 1295,-293 1295,-293 1327,-293 1327,-293 1333,-293 1339,-299 1339,-305 1339,-305 1339,-317 1339,-317 1339,-323 1333,-329 1327,-329"/>
<text text-anchor="middle" x="1311" y="-308.5" font-family="sans" font-size="10.00">get_PFN</text>
</g>
<!-- 12&#45;&gt;11 -->
<g id="edge32" class="edge">
<title>12&#45;&gt;11</title>
<path fill="none" stroke="grey" stroke-width="2" d="M1311,-292.7C1311,-284.98 1311,-275.71 1311,-267.11"/>
<polygon fill="grey" stroke="grey" stroke-width="2" points="1314.5,-267.1 1311,-257.1 1307.5,-267.1 1314.5,-267.1"/>
</g>
<!-- 13 -->
<g id="node14" class="node">
<title>13</title>
<path fill="none" stroke="#bed856" stroke-width="2" stroke-dasharray="5,2" d="M1328,-401C1328,-401 1294,-401 1294,-401 1288,-401 1282,-395 1282,-389 1282,-389 1282,-377 1282,-377 1282,-371 1288,-365 1294,-365 1294,-365 1328,-365 1328,-365 1334,-365 1340,-371 1340,-377 1340,-377 1340,-389 1340,-389 1340,-395 1334,-401 1328,-401"/>
<text text-anchor="middle" x="1311" y="-386" font-family="sans" font-size="10.00">get_LFN</text>
<text text-anchor="middle" x="1311" y="-375" font-family="sans" font-size="10.00">MC: K1G</text>
</g>
<!-- 13&#45;&gt;12 -->
<g id="edge33" class="edge">
<title>13&#45;&gt;12</title>
<path fill="none" stroke="grey" stroke-width="2" d="M1311,-364.7C1311,-356.98 1311,-347.71 1311,-339.11"/>
<polygon fill="grey" stroke="grey" stroke-width="2" points="1314.5,-339.1 1311,-329.1 1307.5,-339.1 1314.5,-339.1"/>
</g>
<!-- 14 -->
<g id="node15" class="node">
<title>14</title>
<path fill="none" stroke="#d85656" stroke-width="2" d="M1432.5,-185C1432.5,-185 1379.5,-185 1379.5,-185 1373.5,-185 1367.5,-179 1367.5,-173 1367.5,-173 1367.5,-161 1367.5,-161 1367.5,-155 1373.5,-149 1379.5,-149 1379.5,-149 1432.5,-149 1432.5,-149 1438.5,-149 1444.5,-155 1444.5,-161 1444.5,-161 1444.5,-173 1444.5,-173 1444.5,-179 1438.5,-185 1432.5,-185"/>
<text text-anchor="middle" x="1406" y="-164.5" font-family="sans" font-size="10.00">Tuple_Moore</text>
</g>
<!-- 14&#45;&gt;1 -->
<g id="edge22" class="edge">
<title>14&#45;&gt;1</title>
<path fill="none" stroke="grey" stroke-width="2" d="M1444.54,-151.45C1447.71,-150.53 1450.89,-149.69 1454,-149 1608.13,-114.55 1654.34,-140.02 1813.82,-113.05"/>
<polygon fill="grey" stroke="grey" stroke-width="2" points="1814.73,-116.44 1823.98,-111.28 1813.53,-109.54 1814.73,-116.44"/>
</g>
<!-- 14&#45;&gt;26 -->
<g id="edge46" class="edge">
<title>14&#45;&gt;26</title>
<path fill="none" stroke="grey" stroke-width="2" d="M1444.52,-151.35C1447.7,-150.45 1450.88,-149.65 1454,-149 1674.49,-103.11 1739.48,-148.19 1965.41,-113.09"/>
<polygon fill="grey" stroke="grey" stroke-width="2" points="1966.26,-116.5 1975.59,-111.47 1965.16,-109.59 1966.26,-116.5"/>
</g>
<!-- 14&#45;&gt;27 -->
<g id="edge52" class="edge">
<title>14&#45;&gt;27</title>
<path fill="none" stroke="grey" stroke-width="2" d="M1444.5,-151.3C1447.69,-150.41 1450.88,-149.62 1454,-149 1740.99,-91.65 1824.58,-156.51 2117.53,-113.05"/>
<polygon fill="grey" stroke="grey" stroke-width="2" points="2118.23,-116.49 2127.6,-111.53 2117.19,-109.56 2118.23,-116.49"/>
</g>
<!-- 14&#45;&gt;28 -->
<g id="edge58" class="edge">
<title>14&#45;&gt;28</title>
<path fill="none" stroke="grey" stroke-width="2" d="M1444.76,-151.19C1447.86,-150.34 1450.96,-149.59 1454,-149 1807.55,-80.2 1909.65,-164.9 2269.69,-113.02"/>
<polygon fill="grey" stroke="grey" stroke-width="2" points="2270.22,-116.48 2279.6,-111.56 2269.2,-109.55 2270.22,-116.48"/>
</g>
<!-- 14&#45;&gt;29 -->
<g id="edge64" class="edge">
<title>14&#45;&gt;29</title>
<path fill="none" stroke="grey" stroke-width="2" d="M1444.76,-151.16C1447.86,-150.32 1450.96,-149.58 1454,-149 1874,-68.77 1994.62,-173.25 2421.47,-113.04"/>
<polygon fill="grey" stroke="grey" stroke-width="2" points="2422.2,-116.47 2431.61,-111.59 2421.21,-109.54 2422.2,-116.47"/>
</g>
<!-- 14&#45;&gt;30 -->
<g id="edge70" class="edge">
<title>14&#45;&gt;30</title>
<path fill="none" stroke="grey" stroke-width="2" d="M1444.76,-151.15C1447.85,-150.31 1450.96,-149.57 1454,-149 1940.51,-57.33 2079.61,-181.64 2573.36,-113.05"/>
<polygon fill="grey" stroke="grey" stroke-width="2" points="2574.2,-116.47 2583.61,-111.61 2573.22,-109.54 2574.2,-116.47"/>
</g>
<!-- 14&#45;&gt;31 -->
<g id="edge76" class="edge">
<title>14&#45;&gt;31</title>
<path fill="none" stroke="grey" stroke-width="2" d="M1367.28,-150.92C1364.51,-150.18 1361.73,-149.52 1359,-149 1096.68,-99.01 427.29,-149.56 144.69,-113.01"/>
<polygon fill="grey" stroke="grey" stroke-width="2" points="144.77,-109.49 134.39,-111.62 143.83,-116.43 144.77,-109.49"/>
</g>
<!-- 14&#45;&gt;32 -->
<g id="edge82" class="edge">
<title>14&#45;&gt;32</title>
<path fill="none" stroke="grey" stroke-width="2" d="M1367.28,-150.94C1364.51,-150.19 1361.73,-149.53 1359,-149 897.68,-60.07 765.24,-178.49 296.47,-113.03"/>
<polygon fill="grey" stroke="grey" stroke-width="2" points="296.78,-109.54 286.39,-111.6 295.8,-116.47 296.78,-109.54"/>
</g>
<!-- 14&#45;&gt;33 -->
<g id="edge88" class="edge">
<title>14&#45;&gt;33</title>
<path fill="none" stroke="grey" stroke-width="2" d="M1367.28,-150.96C1364.5,-150.2 1361.72,-149.53 1359,-149 964.21,-71.74 850.26,-170.08 448.54,-113.05"/>
<polygon fill="grey" stroke="grey" stroke-width="2" points="448.79,-109.55 438.39,-111.58 447.79,-116.47 448.79,-109.55"/>
</g>
<!-- 14&#45;&gt;34 -->
<g id="edge94" class="edge">
<title>14&#45;&gt;34</title>
<path fill="none" stroke="grey" stroke-width="2" d="M1367.27,-150.98C1364.5,-150.22 1361.72,-149.54 1359,-149 1030.64,-83.39 935.26,-161.72 600.38,-113.03"/>
<polygon fill="grey" stroke="grey" stroke-width="2" points="600.8,-109.56 590.4,-111.55 599.78,-116.48 600.8,-109.56"/>
</g>
<!-- 14&#45;&gt;35 -->
<g id="edge100" class="edge">
<title>14&#45;&gt;35</title>
<path fill="none" stroke="grey" stroke-width="2" d="M1367.27,-151.02C1364.49,-150.25 1361.72,-149.56 1359,-149 1097.1,-95.07 1020.31,-153.37 752.42,-113.05"/>
<polygon fill="grey" stroke="grey" stroke-width="2" points="752.82,-109.57 742.4,-111.51 751.76,-116.49 752.82,-109.57"/>
</g>
<!-- 14&#45;&gt;36 -->
<g id="edge106" class="edge">
<title>14&#45;&gt;36</title>
<path fill="none" stroke="grey" stroke-width="2" d="M1367.25,-151.08C1364.48,-150.29 1361.71,-149.59 1359,-149 1163.5,-106.73 1105.4,-145.11 904.01,-112.99"/>
<polygon fill="grey" stroke="grey" stroke-width="2" points="904.44,-109.52 894,-111.36 903.31,-116.43 904.44,-109.52"/>
</g>
<!-- 14&#45;&gt;37 -->
<g id="edge112" class="edge">
<title>14&#45;&gt;37</title>
<path fill="none" stroke="grey" stroke-width="2" d="M1367.48,-151.28C1364.64,-150.43 1361.79,-149.66 1359,-149 1229.71,-118.39 1190.57,-137.04 1055.89,-113.02"/>
<polygon fill="grey" stroke="grey" stroke-width="2" points="1056.5,-109.57 1046.03,-111.21 1055.24,-116.46 1056.5,-109.57"/>
</g>
<!-- 14&#45;&gt;38 -->
<g id="edge118" class="edge">
<title>14&#45;&gt;38</title>
<path fill="none" stroke="grey" stroke-width="2" d="M1367.39,-151.64C1364.56,-150.71 1361.74,-149.82 1359,-149 1295.46,-130.05 1276.12,-129.63 1208.06,-113.22"/>
<polygon fill="grey" stroke="grey" stroke-width="2" points="1208.66,-109.76 1198.12,-110.79 1207,-116.56 1208.66,-109.76"/>
</g>
<!-- 14&#45;&gt;39 -->
<g id="edge124" class="edge">
<title>14&#45;&gt;39</title>
<path fill="none" stroke="grey" stroke-width="2" d="M1376.85,-148.82C1361.36,-139.69 1342.05,-128.31 1324.98,-118.24"/>
<polygon fill="grey" stroke="grey" stroke-width="2" points="1326.68,-115.18 1316.29,-113.12 1323.12,-121.21 1326.68,-115.18"/>
</g>
<!-- 14&#45;&gt;40 -->
<g id="edge130" class="edge">
<title>14&#45;&gt;40</title>
<path fill="none" stroke="grey" stroke-width="2" d="M1412.87,-148.82C1416.02,-140.95 1419.84,-131.4 1423.41,-122.46"/>
<polygon fill="grey" stroke="grey" stroke-width="2" points="1426.69,-123.7 1427.15,-113.12 1420.19,-121.1 1426.69,-123.7"/>
</g>
<!-- 14&#45;&gt;41 -->
<g id="edge136" class="edge">
<title>14&#45;&gt;41</title>
<path fill="none" stroke="grey" stroke-width="2" d="M1444.83,-150.45C1469.27,-140.66 1501.26,-127.84 1528.71,-116.85"/>
<polygon fill="grey" stroke="grey" stroke-width="2" points="1530.23,-120.01 1538.21,-113.04 1527.63,-113.51 1530.23,-120.01"/>
</g>
<!-- 14&#45;&gt;42 -->
<g id="edge142" class="edge">
<title>14&#45;&gt;42</title>
<path fill="none" stroke="grey" stroke-width="2" d="M1444.6,-151.7C1447.76,-150.72 1450.92,-149.8 1454,-149 1542.17,-125.97 1569.06,-132.26 1662.11,-113.09"/>
<polygon fill="grey" stroke="grey" stroke-width="2" points="1662.87,-116.5 1671.93,-111.02 1661.43,-109.65 1662.87,-116.5"/>
</g>
<!-- 15 -->
<g id="node16" class="node">
<title>15</title>
<path fill="none" stroke="#56d8d8" stroke-width="2" d="M1428,-257C1428,-257 1384,-257 1384,-257 1378,-257 1372,-251 1372,-245 1372,-245 1372,-233 1372,-233 1372,-227 1378,-221 1384,-221 1384,-221 1428,-221 1428,-221 1434,-221 1440,-227 1440,-233 1440,-233 1440,-245 1440,-245 1440,-251 1434,-257 1428,-257"/>
<text text-anchor="middle" x="1406" y="-236.5" font-family="sans" font-size="10.00">Dst_Moore</text>
</g>
<!-- 15&#45;&gt;14 -->
<g id="edge34" class="edge">
<title>15&#45;&gt;14</title>
<path fill="none" stroke="grey" stroke-width="2" d="M1406,-220.7C1406,-212.98 1406,-203.71 1406,-195.11"/>
<polygon fill="grey" stroke="grey" stroke-width="2" points="1409.5,-195.1 1406,-185.1 1402.5,-195.1 1409.5,-195.1"/>
</g>
<!-- 16 -->
<g id="node17" class="node">
<title>16</title>
<path fill="none" stroke="#59d856" stroke-width="2" stroke-dasharray="5,2" d="M1422,-329C1422,-329 1390,-329 1390,-329 1384,-329 1378,-323 1378,-317 1378,-317 1378,-305 1378,-305 1378,-299 1384,-293 1390,-293 1390,-293 1422,-293 1422,-293 1428,-293 1434,-299 1434,-305 1434,-305 1434,-317 1434,-317 1434,-323 1428,-329 1422,-329"/>
<text text-anchor="middle" x="1406" y="-308.5" font-family="sans" font-size="10.00">get_PFN</text>
</g>
<!-- 16&#45;&gt;15 -->
<g id="edge35" class="edge">
<title>16&#45;&gt;15</title>
<path fill="none" stroke="grey" stroke-width="2" d="M1406,-292.7C1406,-284.98 1406,-275.71 1406,-267.11"/>
<polygon fill="grey" stroke="grey" stroke-width="2" points="1409.5,-267.1 1406,-257.1 1402.5,-267.1 1409.5,-267.1"/>
</g>
<!-- 17 -->
<g id="node18" class="node">
<title>17</title>
<path fill="none" stroke="#bed856" stroke-width="2" stroke-dasharray="5,2" d="M1436,-401C1436,-401 1376,-401 1376,-401 1370,-401 1364,-395 1364,-389 1364,-389 1364,-377 1364,-377 1364,-371 1370,-365 1376,-365 1376,-365 1436,-365 1436,-365 1442,-365 1448,-371 1448,-377 1448,-377 1448,-389 1448,-389 1448,-395 1442,-401 1436,-401"/>
<text text-anchor="middle" x="1406" y="-386" font-family="sans" font-size="10.00">get_LFN</text>
<text text-anchor="middle" x="1406" y="-375" font-family="sans" font-size="10.00">MC: LambdaG</text>
</g>
<!-- 17&#45;&gt;16 -->
<g id="edge36" class="edge">
<title>17&#45;&gt;16</title>
<path fill="none" stroke="grey" stroke-width="2" d="M1406,-364.7C1406,-356.98 1406,-347.71 1406,-339.11"/>
<polygon fill="grey" stroke="grey" stroke-width="2" points="1409.5,-339.1 1406,-329.1 1402.5,-339.1 1409.5,-339.1"/>
</g>
<!-- 18 -->
<g id="node19" class="node">
<title>18</title>
<path fill="none" stroke="#d85656" stroke-width="2" d="M1527.5,-185C1527.5,-185 1474.5,-185 1474.5,-185 1468.5,-185 1462.5,-179 1462.5,-173 1462.5,-173 1462.5,-161 1462.5,-161 1462.5,-155 1468.5,-149 1474.5,-149 1474.5,-149 1527.5,-149 1527.5,-149 1533.5,-149 1539.5,-155 1539.5,-161 1539.5,-161 1539.5,-173 1539.5,-173 1539.5,-179 1533.5,-185 1527.5,-185"/>
<text text-anchor="middle" x="1501" y="-164.5" font-family="sans" font-size="10.00">Tuple_Moore</text>
</g>
<!-- 18&#45;&gt;1 -->
<g id="edge23" class="edge">
<title>18&#45;&gt;1</title>
<path fill="none" stroke="grey" stroke-width="2" d="M1539.57,-151.57C1542.73,-150.62 1545.91,-149.75 1549,-149 1661.78,-121.7 1696.05,-135.08 1813.83,-113.09"/>
<polygon fill="grey" stroke="grey" stroke-width="2" points="1814.8,-116.47 1823.96,-111.15 1813.48,-109.6 1814.8,-116.47"/>
</g>
<!-- 18&#45;&gt;26 -->
<g id="edge47" class="edge">
<title>18&#45;&gt;26</title>
<path fill="none" stroke="grey" stroke-width="2" d="M1539.53,-151.41C1542.7,-150.49 1545.89,-149.67 1549,-149 1728.04,-110.25 1781.31,-143.08 1965.95,-113.01"/>
<polygon fill="grey" stroke="grey" stroke-width="2" points="1966.71,-116.43 1975.99,-111.33 1965.55,-109.53 1966.71,-116.43"/>
</g>
<!-- 18&#45;&gt;27 -->
<g id="edge53" class="edge">
<title>18&#45;&gt;27</title>
<path fill="none" stroke="grey" stroke-width="2" d="M1539.51,-151.33C1542.69,-150.43 1545.88,-149.64 1549,-149 1794.41,-98.81 1866.4,-151.3 2117.43,-113.08"/>
<polygon fill="grey" stroke="grey" stroke-width="2" points="2118.25,-116.49 2127.59,-111.5 2117.17,-109.58 2118.25,-116.49"/>
</g>
<!-- 18&#45;&gt;28 -->
<g id="edge59" class="edge">
<title>18&#45;&gt;28</title>
<path fill="none" stroke="grey" stroke-width="2" d="M1539.5,-151.28C1542.68,-150.4 1545.88,-149.62 1549,-149 1860.96,-87.35 1951.49,-159.66 2269.64,-113.03"/>
<polygon fill="grey" stroke="grey" stroke-width="2" points="2270.23,-116.48 2279.6,-111.54 2269.19,-109.56 2270.23,-116.48"/>
</g>
<!-- 18&#45;&gt;29 -->
<g id="edge65" class="edge">
<title>18&#45;&gt;29</title>
<path fill="none" stroke="grey" stroke-width="2" d="M1539.76,-151.18C1542.86,-150.33 1545.96,-149.59 1549,-149 1927.46,-75.91 2036.51,-168.02 2421.59,-113.03"/>
<polygon fill="grey" stroke="grey" stroke-width="2" points="2422.21,-116.48 2431.6,-111.57 2421.21,-109.55 2422.21,-116.48"/>
</g>
<!-- 18&#45;&gt;30 -->
<g id="edge71" class="edge">
<title>18&#45;&gt;30</title>
<path fill="none" stroke="grey" stroke-width="2" d="M1539.76,-151.16C1542.85,-150.31 1545.96,-149.58 1549,-149 1993.98,-64.47 2121.52,-176.42 2573.55,-113.03"/>
<polygon fill="grey" stroke="grey" stroke-width="2" points="2574.2,-116.47 2583.61,-111.6 2573.21,-109.54 2574.2,-116.47"/>
</g>
<!-- 18&#45;&gt;31 -->
<g id="edge77" class="edge">
<title>18&#45;&gt;31</title>
<path fill="none" stroke="grey" stroke-width="2" d="M1462.29,-150.92C1459.51,-150.17 1456.73,-149.52 1454,-149 1170.87,-95.35 448.1,-152.16 144.57,-113"/>
<polygon fill="grey" stroke="grey" stroke-width="2" points="144.77,-109.49 134.39,-111.62 143.83,-116.43 144.77,-109.49"/>
</g>
<!-- 18&#45;&gt;32 -->
<g id="edge83" class="edge">
<title>18&#45;&gt;32</title>
<path fill="none" stroke="grey" stroke-width="2" d="M1462.28,-150.93C1459.51,-150.18 1456.73,-149.52 1454,-149 1204.12,-101.19 566.58,-148.02 296.62,-113"/>
<polygon fill="grey" stroke="grey" stroke-width="2" points="296.77,-109.49 286.39,-111.61 295.83,-116.43 296.77,-109.49"/>
</g>
<!-- 18&#45;&gt;33 -->
<g id="edge89" class="edge">
<title>18&#45;&gt;33</title>
<path fill="none" stroke="grey" stroke-width="2" d="M1462.28,-150.94C1459.5,-150.19 1456.73,-149.53 1454,-149 1017.66,-64.45 892.14,-175.32 448.6,-113.05"/>
<polygon fill="grey" stroke="grey" stroke-width="2" points="448.79,-109.54 438.39,-111.59 447.8,-116.47 448.79,-109.54"/>
</g>
<!-- 18&#45;&gt;34 -->
<g id="edge95" class="edge">
<title>18&#45;&gt;34</title>
<path fill="none" stroke="grey" stroke-width="2" d="M1462.28,-150.96C1459.5,-150.21 1456.72,-149.54 1454,-149 1084.12,-76.11 977.13,-166.94 600.48,-113.04"/>
<polygon fill="grey" stroke="grey" stroke-width="2" points="600.8,-109.55 590.4,-111.57 599.79,-116.48 600.8,-109.55"/>
</g>
<!-- 18&#45;&gt;35 -->
<g id="edge101" class="edge">
<title>18&#45;&gt;35</title>
<path fill="none" stroke="grey" stroke-width="2" d="M1462.27,-150.99C1459.5,-150.23 1456.72,-149.55 1454,-149 1150.62,-87.78 1062.18,-158.56 752.57,-113.06"/>
<polygon fill="grey" stroke="grey" stroke-width="2" points="752.81,-109.56 742.4,-111.54 751.77,-116.48 752.81,-109.56"/>
</g>
<!-- 18&#45;&gt;36 -->
<g id="edge107" class="edge">
<title>18&#45;&gt;36</title>
<path fill="none" stroke="grey" stroke-width="2" d="M1462.26,-151.04C1459.49,-150.26 1456.72,-149.57 1454,-149 1217.07,-99.45 1147.25,-150.24 904.6,-113.08"/>
<polygon fill="grey" stroke="grey" stroke-width="2" points="904.83,-109.58 894.41,-111.49 903.75,-116.49 904.83,-109.58"/>
</g>
<!-- 18&#45;&gt;37 -->
<g id="edge113" class="edge">
<title>18&#45;&gt;37</title>
<path fill="none" stroke="grey" stroke-width="2" d="M1462.25,-151.11C1459.48,-150.32 1456.71,-149.6 1454,-149 1283.32,-111.1 1232.31,-142.06 1055.88,-112.98"/>
<polygon fill="grey" stroke="grey" stroke-width="2" points="1056.45,-109.53 1046.01,-111.32 1055.29,-116.43 1056.45,-109.53"/>
</g>
<!-- 18&#45;&gt;38 -->
<g id="edge119" class="edge">
<title>18&#45;&gt;38</title>
<path fill="none" stroke="grey" stroke-width="2" d="M1462.46,-151.36C1459.62,-150.5 1456.78,-149.7 1454,-149 1349.55,-122.79 1317.63,-134.1 1208.17,-113.11"/>
<polygon fill="grey" stroke="grey" stroke-width="2" points="1208.54,-109.61 1198.05,-111.12 1207.18,-116.48 1208.54,-109.61"/>
</g>
<!-- 18&#45;&gt;39 -->
<g id="edge125" class="edge">
<title>18&#45;&gt;39</title>
<path fill="none" stroke="grey" stroke-width="2" d="M1462.31,-151.89C1459.5,-150.9 1456.71,-149.93 1454,-149 1421.5,-137.85 1385.33,-126.03 1354.66,-116.17"/>
<polygon fill="grey" stroke="grey" stroke-width="2" points="1355.49,-112.76 1344.9,-113.04 1353.36,-119.43 1355.49,-112.76"/>
</g>
<!-- 18&#45;&gt;40 -->
<g id="edge131" class="edge">
<title>18&#45;&gt;40</title>
<path fill="none" stroke="grey" stroke-width="2" d="M1485.36,-148.82C1477.74,-140.44 1468.38,-130.17 1459.82,-120.76"/>
<polygon fill="grey" stroke="grey" stroke-width="2" points="1462.18,-118.16 1452.86,-113.12 1457,-122.87 1462.18,-118.16"/>
</g>
<!-- 18&#45;&gt;41 -->
<g id="edge137" class="edge">
<title>18&#45;&gt;41</title>
<path fill="none" stroke="grey" stroke-width="2" d="M1521.38,-148.82C1531.71,-140.11 1544.48,-129.35 1556,-119.64"/>
<polygon fill="grey" stroke="grey" stroke-width="2" points="1558.34,-122.24 1563.73,-113.12 1553.83,-116.89 1558.34,-122.24"/>
</g>
<!-- 18&#45;&gt;42 -->
<g id="edge143" class="edge">
<title>18&#45;&gt;42</title>
<path fill="none" stroke="grey" stroke-width="2" d="M1539.71,-152.08C1542.85,-151.02 1545.97,-149.98 1549,-149 1585.91,-137.08 1627.2,-124.89 1661.84,-114.97"/>
<polygon fill="grey" stroke="grey" stroke-width="2" points="1663.24,-118.22 1671.89,-112.11 1661.32,-111.48 1663.24,-118.22"/>
</g>
<!-- 19 -->
<g id="node20" class="node">
<title>19</title>
<path fill="none" stroke="#56d8d8" stroke-width="2" d="M1523,-257C1523,-257 1479,-257 1479,-257 1473,-257 1467,-251 1467,-245 1467,-245 1467,-233 1467,-233 1467,-227 1473,-221 1479,-221 1479,-221 1523,-221 1523,-221 1529,-221 1535,-227 1535,-233 1535,-233 1535,-245 1535,-245 1535,-251 1529,-257 1523,-257"/>
<text text-anchor="middle" x="1501" y="-236.5" font-family="sans" font-size="10.00">Dst_Moore</text>
</g>
<!-- 19&#45;&gt;18 -->
<g id="edge37" class="edge">
<title>19&#45;&gt;18</title>
<path fill="none" stroke="grey" stroke-width="2" d="M1501,-220.7C1501,-212.98 1501,-203.71 1501,-195.11"/>
<polygon fill="grey" stroke="grey" stroke-width="2" points="1504.5,-195.1 1501,-185.1 1497.5,-195.1 1504.5,-195.1"/>
</g>
<!-- 20 -->
<g id="node21" class="node">
<title>20</title>
<path fill="none" stroke="#59d856" stroke-width="2" stroke-dasharray="5,2" d="M1517,-329C1517,-329 1485,-329 1485,-329 1479,-329 1473,-323 1473,-317 1473,-317 1473,-305 1473,-305 1473,-299 1479,-293 1485,-293 1485,-293 1517,-293 1517,-293 1523,-293 1529,-299 1529,-305 1529,-305 1529,-317 1529,-317 1529,-323 1523,-329 1517,-329"/>
<text text-anchor="middle" x="1501" y="-308.5" font-family="sans" font-size="10.00">get_PFN</text>
</g>
<!-- 20&#45;&gt;19 -->
<g id="edge38" class="edge">
<title>20&#45;&gt;19</title>
<path fill="none" stroke="grey" stroke-width="2" d="M1501,-292.7C1501,-284.98 1501,-275.71 1501,-267.11"/>
<polygon fill="grey" stroke="grey" stroke-width="2" points="1504.5,-267.1 1501,-257.1 1497.5,-267.1 1504.5,-267.1"/>
</g>
<!-- 21 -->
<g id="node22" class="node">
<title>21</title>
<path fill="none" stroke="#bed856" stroke-width="2" stroke-dasharray="5,2" d="M1517,-401C1517,-401 1485,-401 1485,-401 1479,-401 1473,-395 1473,-389 1473,-389 1473,-377 1473,-377 1473,-371 1479,-365 1485,-365 1485,-365 1517,-365 1517,-365 1523,-365 1529,-371 1529,-377 1529,-377 1529,-389 1529,-389 1529,-395 1523,-401 1517,-401"/>
<text text-anchor="middle" x="1501" y="-386" font-family="sans" font-size="10.00">get_LFN</text>
<text text-anchor="middle" x="1501" y="-375" font-family="sans" font-size="10.00">MC: XiG</text>
</g>
<!-- 21&#45;&gt;20 -->
<g id="edge39" class="edge">
<title>21&#45;&gt;20</title>
<path fill="none" stroke="grey" stroke-width="2" d="M1501,-364.7C1501,-356.98 1501,-347.71 1501,-339.11"/>
<polygon fill="grey" stroke="grey" stroke-width="2" points="1504.5,-339.1 1501,-329.1 1497.5,-339.1 1504.5,-339.1"/>
</g>
<!-- 22 -->
<g id="node23" class="node">
<title>22</title>
<path fill="none" stroke="#d85656" stroke-width="2" d="M1622.5,-185C1622.5,-185 1569.5,-185 1569.5,-185 1563.5,-185 1557.5,-179 1557.5,-173 1557.5,-173 1557.5,-161 1557.5,-161 1557.5,-155 1563.5,-149 1569.5,-149 1569.5,-149 1622.5,-149 1622.5,-149 1628.5,-149 1634.5,-155 1634.5,-161 1634.5,-161 1634.5,-173 1634.5,-173 1634.5,-179 1628.5,-185 1622.5,-185"/>
<text text-anchor="middle" x="1596" y="-164.5" font-family="sans" font-size="10.00">Tuple_Moore</text>
</g>
<!-- 22&#45;&gt;1 -->
<g id="edge24" class="edge">
<title>22&#45;&gt;1</title>
<path fill="none" stroke="grey" stroke-width="2" d="M1634.81,-156.78C1676.56,-146.82 1745.18,-130.34 1813.76,-113.29"/>
<polygon fill="grey" stroke="grey" stroke-width="2" points="1815.02,-116.59 1823.88,-110.78 1813.33,-109.8 1815.02,-116.59"/>
</g>
<!-- 22&#45;&gt;26 -->
<g id="edge48" class="edge">
<title>22&#45;&gt;26</title>
<path fill="none" stroke="grey" stroke-width="2" d="M1634.69,-161.88C1700.7,-154.56 1839.44,-137.83 1966.08,-113.08"/>
<polygon fill="grey" stroke="grey" stroke-width="2" points="1966.82,-116.5 1975.95,-111.13 1965.47,-109.63 1966.82,-116.5"/>
</g>
<!-- 22&#45;&gt;27 -->
<g id="edge54" class="edge">
<title>22&#45;&gt;27</title>
<path fill="none" stroke="grey" stroke-width="2" d="M1634.66,-164.07C1720.18,-159.38 1931.9,-145.44 2118.02,-113.03"/>
<polygon fill="grey" stroke="grey" stroke-width="2" points="2118.74,-116.46 2127.98,-111.28 2117.53,-109.57 2118.74,-116.46"/>
</g>
<!-- 22&#45;&gt;28 -->
<g id="edge60" class="edge">
<title>22&#45;&gt;28</title>
<path fill="none" stroke="grey" stroke-width="2" d="M1634.72,-165.3C1737.07,-162.94 2023.29,-153.13 2269.77,-113.05"/>
<polygon fill="grey" stroke="grey" stroke-width="2" points="2270.7,-116.44 2280,-111.36 2269.56,-109.53 2270.7,-116.44"/>
</g>
<!-- 22&#45;&gt;29 -->
<g id="edge66" class="edge">
<title>22&#45;&gt;29</title>
<path fill="none" stroke="grey" stroke-width="2" d="M1634.62,-166.08C1751.9,-165.79 2114.23,-160.91 2421.6,-113.07"/>
<polygon fill="grey" stroke="grey" stroke-width="2" points="2422.26,-116.51 2431.59,-111.49 2421.17,-109.59 2422.26,-116.51"/>
</g>
<!-- 22&#45;&gt;30 -->
<g id="edge72" class="edge">
<title>22&#45;&gt;30</title>
<path fill="none" stroke="grey" stroke-width="2" d="M1634.66,-164.93C1789.92,-160.46 2369.11,-142.26 2573.57,-113.02"/>
<polygon fill="grey" stroke="grey" stroke-width="2" points="2574.22,-116.46 2583.6,-111.53 2573.19,-109.54 2574.22,-116.46"/>
</g>
<!-- 22&#45;&gt;31 -->
<g id="edge78" class="edge">
<title>22&#45;&gt;31</title>
<path fill="none" stroke="grey" stroke-width="2" d="M1557.29,-150.91C1554.51,-150.17 1551.73,-149.51 1549,-149 1245.01,-91.69 468.7,-154.79 144.32,-112.96"/>
<polygon fill="grey" stroke="grey" stroke-width="2" points="144.76,-109.49 134.39,-111.63 143.83,-116.43 144.76,-109.49"/>
</g>
<!-- 22&#45;&gt;32 -->
<g id="edge84" class="edge">
<title>22&#45;&gt;32</title>
<path fill="none" stroke="grey" stroke-width="2" d="M1557.28,-150.92C1554.51,-150.17 1551.73,-149.52 1549,-149 1278.33,-97.54 587.5,-150.61 296.57,-113"/>
<polygon fill="grey" stroke="grey" stroke-width="2" points="296.77,-109.49 286.39,-111.62 295.83,-116.43 296.77,-109.49"/>
</g>
<!-- 22&#45;&gt;33 -->
<g id="edge90" class="edge">
<title>22&#45;&gt;33</title>
<path fill="none" stroke="grey" stroke-width="2" d="M1557.28,-150.93C1554.51,-150.18 1551.73,-149.52 1549,-149 1071.06,-57.15 933.98,-180.6 448.47,-113.03"/>
<polygon fill="grey" stroke="grey" stroke-width="2" points="448.78,-109.54 438.39,-111.61 447.8,-116.47 448.78,-109.54"/>
</g>
<!-- 22&#45;&gt;34 -->
<g id="edge96" class="edge">
<title>22&#45;&gt;34</title>
<path fill="none" stroke="grey" stroke-width="2" d="M1557.28,-150.95C1554.5,-150.2 1551.73,-149.53 1549,-149 1137.52,-68.81 1018.97,-172.21 600.34,-113.02"/>
<polygon fill="grey" stroke="grey" stroke-width="2" points="600.79,-109.54 590.39,-111.59 599.79,-116.47 600.79,-109.54"/>
</g>
<!-- 22&#45;&gt;35 -->
<g id="edge102" class="edge">
<title>22&#45;&gt;35</title>
<path fill="none" stroke="grey" stroke-width="2" d="M1557.27,-150.97C1554.5,-150.21 1551.72,-149.54 1549,-149 1204.01,-80.48 1103.99,-163.82 752.34,-113.02"/>
<polygon fill="grey" stroke="grey" stroke-width="2" points="752.8,-109.55 742.4,-111.56 751.78,-116.48 752.8,-109.55"/>
</g>
<!-- 22&#45;&gt;36 -->
<g id="edge108" class="edge">
<title>22&#45;&gt;36</title>
<path fill="none" stroke="grey" stroke-width="2" d="M1557.27,-151.01C1554.5,-150.24 1551.72,-149.56 1549,-149 1270.56,-92.16 1189.08,-155.43 904.61,-113.07"/>
<polygon fill="grey" stroke="grey" stroke-width="2" points="904.82,-109.57 894.4,-111.52 903.76,-116.49 904.82,-109.57"/>
</g>
<!-- 22&#45;&gt;37 -->
<g id="edge114" class="edge">
<title>22&#45;&gt;37</title>
<path fill="none" stroke="grey" stroke-width="2" d="M1557.26,-151.06C1554.49,-150.28 1551.72,-149.58 1549,-149 1336.95,-103.83 1274.15,-147.14 1056.56,-113.09"/>
<polygon fill="grey" stroke="grey" stroke-width="2" points="1056.84,-109.59 1046.41,-111.46 1055.73,-116.5 1056.84,-109.59"/>
</g>
<!-- 22&#45;&gt;38 -->
<g id="edge120" class="edge">
<title>22&#45;&gt;38</title>
<path fill="none" stroke="grey" stroke-width="2" d="M1557.49,-151.24C1554.64,-150.4 1551.79,-149.64 1549,-149 1403.25,-115.49 1359.3,-139 1208.13,-113.05"/>
<polygon fill="grey" stroke="grey" stroke-width="2" points="1208.48,-109.55 1198.02,-111.26 1207.26,-116.45 1208.48,-109.55"/>
</g>
<!-- 22&#45;&gt;39 -->
<g id="edge126" class="edge">
<title>22&#45;&gt;39</title>
<path fill="none" stroke="grey" stroke-width="2" d="M1557.43,-151.5C1554.59,-150.6 1551.76,-149.76 1549,-149 1469.1,-127.13 1444.65,-131.34 1359.87,-113.11"/>
<polygon fill="grey" stroke="grey" stroke-width="2" points="1360.6,-109.68 1350.08,-110.96 1359.1,-116.52 1360.6,-109.68"/>
</g>
<!-- 22&#45;&gt;40 -->
<g id="edge132" class="edge">
<title>22&#45;&gt;40</title>
<path fill="none" stroke="grey" stroke-width="2" d="M1557.85,-148.82C1536.92,-139.4 1510.67,-127.57 1487.8,-117.28"/>
<polygon fill="grey" stroke="grey" stroke-width="2" points="1489.12,-114.03 1478.57,-113.12 1486.25,-120.42 1489.12,-114.03"/>
</g>
<!-- 22&#45;&gt;41 -->
<g id="edge138" class="edge">
<title>22&#45;&gt;41</title>
<path fill="none" stroke="grey" stroke-width="2" d="M1593.87,-148.82C1592.92,-141.2 1591.78,-132 1590.7,-123.32"/>
<polygon fill="grey" stroke="grey" stroke-width="2" points="1594.14,-122.61 1589.44,-113.12 1587.19,-123.47 1594.14,-122.61"/>
</g>
<!-- 22&#45;&gt;42 -->
<g id="edge144" class="edge">
<title>22&#45;&gt;42</title>
<path fill="none" stroke="grey" stroke-width="2" d="M1629.89,-148.82C1648.22,-139.52 1671.17,-127.89 1691.29,-117.69"/>
<polygon fill="grey" stroke="grey" stroke-width="2" points="1692.97,-120.76 1700.3,-113.12 1689.8,-114.52 1692.97,-120.76"/>
</g>
<!-- 23 -->
<g id="node24" class="node">
<title>23</title>
<path fill="none" stroke="#56d8d8" stroke-width="2" d="M1618,-257C1618,-257 1574,-257 1574,-257 1568,-257 1562,-251 1562,-245 1562,-245 1562,-233 1562,-233 1562,-227 1568,-221 1574,-221 1574,-221 1618,-221 1618,-221 1624,-221 1630,-227 1630,-233 1630,-233 1630,-245 1630,-245 1630,-251 1624,-257 1618,-257"/>
<text text-anchor="middle" x="1596" y="-236.5" font-family="sans" font-size="10.00">Dst_Moore</text>
</g>
<!-- 23&#45;&gt;22 -->
<g id="edge40" class="edge">
<title>23&#45;&gt;22</title>
<path fill="none" stroke="grey" stroke-width="2" d="M1596,-220.7C1596,-212.98 1596,-203.71 1596,-195.11"/>
<polygon fill="grey" stroke="grey" stroke-width="2" points="1599.5,-195.1 1596,-185.1 1592.5,-195.1 1599.5,-195.1"/>
</g>
<!-- 24 -->
<g id="node25" class="node">
<title>24</title>
<path fill="none" stroke="#59d856" stroke-width="2" stroke-dasharray="5,2" d="M1612,-329C1612,-329 1580,-329 1580,-329 1574,-329 1568,-323 1568,-317 1568,-317 1568,-305 1568,-305 1568,-299 1574,-293 1580,-293 1580,-293 1612,-293 1612,-293 1618,-293 1624,-299 1624,-305 1624,-305 1624,-317 1624,-317 1624,-323 1618,-329 1612,-329"/>
<text text-anchor="middle" x="1596" y="-308.5" font-family="sans" font-size="10.00">get_PFN</text>
</g>
<!-- 24&#45;&gt;23 -->
<g id="edge41" class="edge">
<title>24&#45;&gt;23</title>
<path fill="none" stroke="grey" stroke-width="2" d="M1596,-292.7C1596,-284.98 1596,-275.71 1596,-267.11"/>
<polygon fill="grey" stroke="grey" stroke-width="2" points="1599.5,-267.1 1596,-257.1 1592.5,-267.1 1599.5,-267.1"/>
</g>
<!-- 25 -->
<g id="node26" class="node">
<title>25</title>
<path fill="none" stroke="#bed856" stroke-width="2" stroke-dasharray="5,2" d="M1624,-401C1624,-401 1568,-401 1568,-401 1562,-401 1556,-395 1556,-389 1556,-389 1556,-377 1556,-377 1556,-371 1562,-365 1568,-365 1568,-365 1624,-365 1624,-365 1630,-365 1636,-371 1636,-377 1636,-377 1636,-389 1636,-389 1636,-395 1630,-401 1624,-401"/>
<text text-anchor="middle" x="1596" y="-386" font-family="sans" font-size="10.00">get_LFN</text>
<text text-anchor="middle" x="1596" y="-375" font-family="sans" font-size="10.00">MC: OmegaG</text>
</g>
<!-- 25&#45;&gt;24 -->
<g id="edge42" class="edge">
<title>25&#45;&gt;24</title>
<path fill="none" stroke="grey" stroke-width="2" d="M1596,-364.7C1596,-356.98 1596,-347.71 1596,-339.11"/>
<polygon fill="grey" stroke="grey" stroke-width="2" points="1599.5,-339.1 1596,-329.1 1592.5,-339.1 1599.5,-339.1"/>
</g>
<!-- 26&#45;&gt;0 -->
<g id="edge2" class="edge">
<title>26&#45;&gt;0</title>
<path fill="none" stroke="grey" stroke-width="2" d="M1975.99,-73.67C1972.96,-73.07 1969.95,-72.5 1967,-72 1771.02,-38.55 1535.68,-25.66 1423.98,-21.16"/>
<polygon fill="grey" stroke="grey" stroke-width="2" points="1424.01,-17.66 1413.89,-20.77 1423.74,-24.66 1424.01,-17.66"/>
</g>
<!-- 27&#45;&gt;0 -->
<g id="edge3" class="edge">
<title>27&#45;&gt;0</title>
<path fill="none" stroke="grey" stroke-width="2" d="M2127.59,-73.53C2124.7,-72.97 2121.82,-72.46 2119,-72 1864.12,-30.76 1556.03,-21.6 1424.09,-19.57"/>
<polygon fill="grey" stroke="grey" stroke-width="2" points="1423.81,-16.07 1413.76,-19.42 1423.71,-23.07 1423.81,-16.07"/>
</g>
<!-- 28&#45;&gt;0 -->
<g id="edge4" class="edge">
<title>28&#45;&gt;0</title>
<path fill="none" stroke="grey" stroke-width="2" d="M2279.6,-73.49C2276.7,-72.94 2273.83,-72.44 2271,-72 1956.32,-22.96 1574.17,-18.24 1424.02,-18.49"/>
<polygon fill="grey" stroke="grey" stroke-width="2" points="1423.6,-14.99 1413.61,-18.52 1423.62,-21.99 1423.6,-14.99"/>
</g>
<!-- 29&#45;&gt;0 -->
<g id="edge5" class="edge">
<title>29&#45;&gt;0</title>
<path fill="none" stroke="grey" stroke-width="2" d="M2431.6,-73.46C2428.7,-72.92 2425.83,-72.43 2423,-72 2228.66,-42.54 1623.53,-25.46 1423.74,-20.52"/>
<polygon fill="grey" stroke="grey" stroke-width="2" points="1423.77,-17.02 1413.69,-20.27 1423.6,-24.01 1423.77,-17.02"/>
</g>
<!-- 30&#45;&gt;0 -->
<g id="edge6" class="edge">
<title>30&#45;&gt;0</title>
<path fill="none" stroke="grey" stroke-width="2" d="M2583.6,-73.43C2580.71,-72.9 2577.83,-72.42 2575,-72 2349.7,-38.56 1641.54,-23.85 1423.53,-20.05"/>
<polygon fill="grey" stroke="grey" stroke-width="2" points="1423.58,-16.55 1413.52,-19.87 1423.46,-23.54 1423.58,-16.55"/>
</g>
<!-- 31&#45;&gt;0 -->
<g id="edge7" class="edge">
<title>31&#45;&gt;0</title>
<path fill="none" stroke="grey" stroke-width="2" d="M134.4,-73.43C137.29,-72.9 140.17,-72.42 143,-72 368.3,-38.56 1076.46,-23.85 1294.47,-20.05"/>
<polygon fill="grey" stroke="grey" stroke-width="2" points="1294.54,-23.54 1304.48,-19.87 1294.42,-16.55 1294.54,-23.54"/>
</g>
<!-- 32&#45;&gt;0 -->
<g id="edge8" class="edge">
<title>32&#45;&gt;0</title>
<path fill="none" stroke="grey" stroke-width="2" d="M286.4,-73.46C289.3,-72.92 292.17,-72.43 295,-72 489.34,-42.54 1094.47,-25.46 1294.26,-20.52"/>
<polygon fill="grey" stroke="grey" stroke-width="2" points="1294.4,-24.01 1304.31,-20.27 1294.23,-17.02 1294.4,-24.01"/>
</g>
<!-- 33&#45;&gt;0 -->
<g id="edge9" class="edge">
<title>33&#45;&gt;0</title>
<path fill="none" stroke="grey" stroke-width="2" d="M438.4,-73.49C441.3,-72.94 444.17,-72.44 447,-72 761.68,-22.96 1143.83,-18.24 1293.98,-18.49"/>
<polygon fill="grey" stroke="grey" stroke-width="2" points="1294.38,-21.99 1304.39,-18.52 1294.4,-14.99 1294.38,-21.99"/>
</g>
<!-- 34&#45;&gt;0 -->
<g id="edge10" class="edge">
<title>34&#45;&gt;0</title>
<path fill="none" stroke="grey" stroke-width="2" d="M590.41,-73.53C593.3,-72.97 596.18,-72.46 599,-72 853.88,-30.76 1161.97,-21.6 1293.91,-19.57"/>
<polygon fill="grey" stroke="grey" stroke-width="2" points="1294.29,-23.07 1304.24,-19.42 1294.19,-16.07 1294.29,-23.07"/>
</g>
<!-- 35&#45;&gt;0 -->
<g id="edge11" class="edge">
<title>35&#45;&gt;0</title>
<path fill="none" stroke="grey" stroke-width="2" d="M742.01,-73.67C745.04,-73.07 748.05,-72.5 751,-72 946.98,-38.55 1182.32,-25.66 1294.02,-21.16"/>
<polygon fill="grey" stroke="grey" stroke-width="2" points="1294.26,-24.66 1304.11,-20.77 1293.99,-17.66 1294.26,-24.66"/>
</g>
<!-- 36&#45;&gt;0 -->
<g id="edge12" class="edge">
<title>36&#45;&gt;0</title>
<path fill="none" stroke="grey" stroke-width="2" d="M894.03,-73.78C897.05,-73.14 900.05,-72.55 903,-72 1041.13,-46.37 1205.23,-30.91 1294.05,-23.76"/>
<polygon fill="grey" stroke="grey" stroke-width="2" points="1294.55,-27.23 1304.24,-22.95 1294,-20.26 1294.55,-27.23"/>
</g>
<!-- 37&#45;&gt;0 -->
<g id="edge13" class="edge">
<title>37&#45;&gt;0</title>
<path fill="none" stroke="grey" stroke-width="2" d="M1046.07,-73.99C1049.08,-73.3 1052.07,-72.63 1055,-72 1137.11,-54.34 1232.66,-38.43 1294.4,-28.75"/>
<polygon fill="grey" stroke="grey" stroke-width="2" points="1295.04,-32.2 1304.38,-27.2 1293.96,-25.28 1295.04,-32.2"/>
</g>
<!-- 38&#45;&gt;0 -->
<g id="edge14" class="edge">
<title>38&#45;&gt;0</title>
<path fill="none" stroke="grey" stroke-width="2" d="M1192.4,-71.98C1224.31,-61.83 1263.27,-49.44 1295.49,-39.2"/>
<polygon fill="grey" stroke="grey" stroke-width="2" points="1296.79,-42.46 1305.26,-36.09 1294.67,-35.78 1296.79,-42.46"/>
</g>
<!-- 39&#45;&gt;0 -->
<g id="edge15" class="edge">
<title>39&#45;&gt;0</title>
<path fill="none" stroke="grey" stroke-width="2" d="M1303.77,-71.69C1312.99,-62.89 1323.94,-52.45 1333.64,-43.19"/>
<polygon fill="grey" stroke="grey" stroke-width="2" points="1336.28,-45.51 1341.1,-36.08 1331.45,-40.45 1336.28,-45.51"/>
</g>
<!-- 40&#45;&gt;0 -->
<g id="edge16" class="edge">
<title>40&#45;&gt;0</title>
<path fill="none" stroke="grey" stroke-width="2" d="M1414.23,-71.69C1405.01,-62.89 1394.06,-52.45 1384.36,-43.19"/>
<polygon fill="grey" stroke="grey" stroke-width="2" points="1386.55,-40.45 1376.9,-36.08 1381.72,-45.51 1386.55,-40.45"/>
</g>
<!-- 41&#45;&gt;0 -->
<g id="edge17" class="edge">
<title>41&#45;&gt;0</title>
<path fill="none" stroke="grey" stroke-width="2" d="M1525.6,-71.98C1493.69,-61.83 1454.73,-49.44 1422.51,-39.2"/>
<polygon fill="grey" stroke="grey" stroke-width="2" points="1423.33,-35.78 1412.74,-36.09 1421.21,-42.46 1423.33,-35.78"/>
</g>
<!-- 42&#45;&gt;0 -->
<g id="edge18" class="edge">
<title>42&#45;&gt;0</title>
<path fill="none" stroke="grey" stroke-width="2" d="M1671.93,-73.99C1668.92,-73.3 1665.93,-72.63 1663,-72 1580.89,-54.34 1485.34,-38.43 1423.6,-28.75"/>
<polygon fill="grey" stroke="grey" stroke-width="2" points="1424.04,-25.28 1413.62,-27.2 1422.96,-32.2 1424.04,-25.28"/>
</g>
</g>
</svg>
