<?xml version="1.0" encoding="UTF-8" standalone="no"?>
<!DOCTYPE svg PUBLIC "-//W3C//DTD SVG 1.1//EN"
 "http://www.w3.org/Graphics/SVG/1.1/DTD/svg11.dtd">
<!-- Generated by graphviz version 2.47.1 (20210418.0311)
 -->
<!-- Title: snakemake_dag Pages: 1 -->
<svg width="498pt" height="188pt"
 viewBox="0.00 0.00 497.50 188.00" xmlns="http://www.w3.org/2000/svg" xmlns:xlink="http://www.w3.org/1999/xlink">
<g id="graph0" class="graph" transform="scale(1 1) rotate(0) translate(4 184)">
<title>snakemake_dag</title>
<polygon fill="white" stroke="transparent" points="-4,4 -4,-184 493.5,-184 493.5,4 -4,4"/>
<!-- 0 -->
<g id="node1" class="node">
<title>0</title>
<path fill="none" stroke="#569ad8" stroke-width="2" stroke-dasharray="5,2" d="M258,-36C258,-36 203,-36 203,-36 197,-36 191,-30 191,-24 191,-24 191,-12 191,-12 191,-6 197,0 203,0 203,0 258,0 258,0 264,0 270,-6 270,-12 270,-12 270,-24 270,-24 270,-30 264,-36 258,-36"/>
<text text-anchor="middle" x="230.5" y="-15.5" font-family="sans" font-size="10.00">get_all_PFNs</text>
</g>
<!-- 1 -->
<g id="node2" class="node">
<title>1</title>
<path fill="none" stroke="#56d8d8" stroke-width="2" stroke-dasharray="5,2" d="M50.5,-108C50.5,-108 18.5,-108 18.5,-108 12.5,-108 6.5,-102 6.5,-96 6.5,-96 6.5,-84 6.5,-84 6.5,-78 12.5,-72 18.5,-72 18.5,-72 50.5,-72 50.5,-72 56.5,-72 62.5,-78 62.5,-84 62.5,-84 62.5,-96 62.5,-96 62.5,-102 56.5,-108 50.5,-108"/>
<text text-anchor="middle" x="34.5" y="-87.5" font-family="sans" font-size="10.00">get_PFN</text>
</g>
<!-- 1&#45;&gt;0 -->
<g id="edge1" class="edge">
<title>1&#45;&gt;0</title>
<path fill="none" stroke="grey" stroke-width="2" d="M62.5,-76.45C66.18,-74.91 69.92,-73.38 73.5,-72 109.1,-58.26 149.96,-44.53 181.07,-34.49"/>
<polygon fill="grey" stroke="grey" stroke-width="2" points="182.36,-37.75 190.81,-31.36 180.22,-31.09 182.36,-37.75"/>
</g>
<!-- 2 -->
<g id="node3" class="node">
<title>2</title>
<path fill="none" stroke="#56d89a" stroke-width="2" stroke-dasharray="5,2" d="M49,-180C49,-180 12,-180 12,-180 6,-180 0,-174 0,-168 0,-168 0,-156 0,-156 0,-150 6,-144 12,-144 12,-144 49,-144 49,-144 55,-144 61,-150 61,-156 61,-156 61,-168 61,-168 61,-174 55,-180 49,-180"/>
<text text-anchor="middle" x="30.5" y="-165" font-family="sans" font-size="10.00">get_LFN</text>
<text text-anchor="middle" x="30.5" y="-154" font-family="sans" font-size="10.00">MC: KstG</text>
</g>
<!-- 2&#45;&gt;1 -->
<g id="edge7" class="edge">
<title>2&#45;&gt;1</title>
<path fill="none" stroke="grey" stroke-width="2" d="M31.49,-143.7C31.93,-135.98 32.46,-126.71 32.95,-118.11"/>
<polygon fill="grey" stroke="grey" stroke-width="2" points="36.45,-118.29 33.52,-108.1 29.46,-117.89 36.45,-118.29"/>
</g>
<!-- 3 -->
<g id="node4" class="node">
<title>3</title>
<path fill="none" stroke="#56d8d8" stroke-width="2" stroke-dasharray="5,2" d="M126.5,-108C126.5,-108 94.5,-108 94.5,-108 88.5,-108 82.5,-102 82.5,-96 82.5,-96 82.5,-84 82.5,-84 82.5,-78 88.5,-72 94.5,-72 94.5,-72 126.5,-72 126.5,-72 132.5,-72 138.5,-78 138.5,-84 138.5,-84 138.5,-96 138.5,-96 138.5,-102 132.5,-108 126.5,-108"/>
<text text-anchor="middle" x="110.5" y="-87.5" font-family="sans" font-size="10.00">get_PFN</text>
</g>
<!-- 3&#45;&gt;0 -->
<g id="edge2" class="edge">
<title>3&#45;&gt;0</title>
<path fill="none" stroke="grey" stroke-width="2" d="M138.63,-72.59C154.68,-63.23 175.01,-51.37 192.46,-41.19"/>
<polygon fill="grey" stroke="grey" stroke-width="2" points="194.41,-44.1 201.29,-36.04 190.89,-38.06 194.41,-44.1"/>
</g>
<!-- 4 -->
<g id="node5" class="node">
<title>4</title>
<path fill="none" stroke="#56d89a" stroke-width="2" stroke-dasharray="5,2" d="M127.5,-180C127.5,-180 91.5,-180 91.5,-180 85.5,-180 79.5,-174 79.5,-168 79.5,-168 79.5,-156 79.5,-156 79.5,-150 85.5,-144 91.5,-144 91.5,-144 127.5,-144 127.5,-144 133.5,-144 139.5,-150 139.5,-156 139.5,-156 139.5,-168 139.5,-168 139.5,-174 133.5,-180 127.5,-180"/>
<text text-anchor="middle" x="109.5" y="-165" font-family="sans" font-size="10.00">get_LFN</text>
<text text-anchor="middle" x="109.5" y="-154" font-family="sans" font-size="10.00">MC: PhiG</text>
</g>
<!-- 4&#45;&gt;3 -->
<g id="edge8" class="edge">
<title>4&#45;&gt;3</title>
<path fill="none" stroke="grey" stroke-width="2" d="M109.75,-143.7C109.86,-135.98 109.99,-126.71 110.11,-118.11"/>
<polygon fill="grey" stroke="grey" stroke-width="2" points="113.61,-118.15 110.26,-108.1 106.61,-118.05 113.61,-118.15"/>
</g>
<!-- 5 -->
<g id="node6" class="node">
<title>5</title>
<path fill="none" stroke="#56d8d8" stroke-width="2" stroke-dasharray="5,2" d="M206.5,-108C206.5,-108 174.5,-108 174.5,-108 168.5,-108 162.5,-102 162.5,-96 162.5,-96 162.5,-84 162.5,-84 162.5,-78 168.5,-72 174.5,-72 174.5,-72 206.5,-72 206.5,-72 212.5,-72 218.5,-78 218.5,-84 218.5,-84 218.5,-96 218.5,-96 218.5,-102 212.5,-108 206.5,-108"/>
<text text-anchor="middle" x="190.5" y="-87.5" font-family="sans" font-size="10.00">get_PFN</text>
</g>
<!-- 5&#45;&gt;0 -->
<g id="edge3" class="edge">
<title>5&#45;&gt;0</title>
<path fill="none" stroke="grey" stroke-width="2" d="M200.39,-71.7C204.99,-63.64 210.56,-53.89 215.65,-44.98"/>
<polygon fill="grey" stroke="grey" stroke-width="2" points="218.8,-46.52 220.73,-36.1 212.73,-43.05 218.8,-46.52"/>
</g>
<!-- 6 -->
<g id="node7" class="node">
<title>6</title>
<path fill="none" stroke="#56d89a" stroke-width="2" stroke-dasharray="5,2" d="M203.5,-180C203.5,-180 169.5,-180 169.5,-180 163.5,-180 157.5,-174 157.5,-168 157.5,-168 157.5,-156 157.5,-156 157.5,-150 163.5,-144 169.5,-144 169.5,-144 203.5,-144 203.5,-144 209.5,-144 215.5,-150 215.5,-156 215.5,-156 215.5,-168 215.5,-168 215.5,-174 209.5,-180 203.5,-180"/>
<text text-anchor="middle" x="186.5" y="-165" font-family="sans" font-size="10.00">get_LFN</text>
<text text-anchor="middle" x="186.5" y="-154" font-family="sans" font-size="10.00">MC: K1G</text>
</g>
<!-- 6&#45;&gt;5 -->
<g id="edge9" class="edge">
<title>6&#45;&gt;5</title>
<path fill="none" stroke="grey" stroke-width="2" d="M187.49,-143.7C187.93,-135.98 188.46,-126.71 188.95,-118.11"/>
<polygon fill="grey" stroke="grey" stroke-width="2" points="192.45,-118.29 189.52,-108.1 185.46,-117.89 192.45,-118.29"/>
</g>
<!-- 7 -->
<g id="node8" class="node">
<title>7</title>
<path fill="none" stroke="#56d8d8" stroke-width="2" stroke-dasharray="5,2" d="M287.5,-108C287.5,-108 255.5,-108 255.5,-108 249.5,-108 243.5,-102 243.5,-96 243.5,-96 243.5,-84 243.5,-84 243.5,-78 249.5,-72 255.5,-72 255.5,-72 287.5,-72 287.5,-72 293.5,-72 299.5,-78 299.5,-84 299.5,-84 299.5,-96 299.5,-96 299.5,-102 293.5,-108 287.5,-108"/>
<text text-anchor="middle" x="271.5" y="-87.5" font-family="sans" font-size="10.00">get_PFN</text>
</g>
<!-- 7&#45;&gt;0 -->
<g id="edge4" class="edge">
<title>7&#45;&gt;0</title>
<path fill="none" stroke="grey" stroke-width="2" d="M261.37,-71.7C256.65,-63.64 250.94,-53.89 245.72,-44.98"/>
<polygon fill="grey" stroke="grey" stroke-width="2" points="248.59,-42.96 240.52,-36.1 242.55,-46.5 248.59,-42.96"/>
</g>
<!-- 8 -->
<g id="node9" class="node">
<title>8</title>
<path fill="none" stroke="#56d89a" stroke-width="2" stroke-dasharray="5,2" d="M305.5,-180C305.5,-180 245.5,-180 245.5,-180 239.5,-180 233.5,-174 233.5,-168 233.5,-168 233.5,-156 233.5,-156 233.5,-150 239.5,-144 245.5,-144 245.5,-144 305.5,-144 305.5,-144 311.5,-144 317.5,-150 317.5,-156 317.5,-156 317.5,-168 317.5,-168 317.5,-174 311.5,-180 305.5,-180"/>
<text text-anchor="middle" x="275.5" y="-165" font-family="sans" font-size="10.00">get_LFN</text>
<text text-anchor="middle" x="275.5" y="-154" font-family="sans" font-size="10.00">MC: LambdaG</text>
</g>
<!-- 8&#45;&gt;7 -->
<g id="edge10" class="edge">
<title>8&#45;&gt;7</title>
<path fill="none" stroke="grey" stroke-width="2" d="M274.51,-143.7C274.07,-135.98 273.54,-126.71 273.05,-118.11"/>
<polygon fill="grey" stroke="grey" stroke-width="2" points="276.54,-117.89 272.48,-108.1 269.55,-118.29 276.54,-117.89"/>
</g>
<!-- 9 -->
<g id="node10" class="node">
<title>9</title>
<path fill="none" stroke="#56d8d8" stroke-width="2" stroke-dasharray="5,2" d="M372.5,-108C372.5,-108 340.5,-108 340.5,-108 334.5,-108 328.5,-102 328.5,-96 328.5,-96 328.5,-84 328.5,-84 328.5,-78 334.5,-72 340.5,-72 340.5,-72 372.5,-72 372.5,-72 378.5,-72 384.5,-78 384.5,-84 384.5,-84 384.5,-96 384.5,-96 384.5,-102 378.5,-108 372.5,-108"/>
<text text-anchor="middle" x="356.5" y="-87.5" font-family="sans" font-size="10.00">get_PFN</text>
</g>
<!-- 9&#45;&gt;0 -->
<g id="edge5" class="edge">
<title>9&#45;&gt;0</title>
<path fill="none" stroke="grey" stroke-width="2" d="M328.22,-73.29C311.14,-63.8 289.1,-51.55 270.28,-41.1"/>
<polygon fill="grey" stroke="grey" stroke-width="2" points="271.77,-37.92 261.33,-36.13 268.37,-44.04 271.77,-37.92"/>
</g>
<!-- 10 -->
<g id="node11" class="node">
<title>10</title>
<path fill="none" stroke="#56d89a" stroke-width="2" stroke-dasharray="5,2" d="M379.5,-180C379.5,-180 347.5,-180 347.5,-180 341.5,-180 335.5,-174 335.5,-168 335.5,-168 335.5,-156 335.5,-156 335.5,-150 341.5,-144 347.5,-144 347.5,-144 379.5,-144 379.5,-144 385.5,-144 391.5,-150 391.5,-156 391.5,-156 391.5,-168 391.5,-168 391.5,-174 385.5,-180 379.5,-180"/>
<text text-anchor="middle" x="363.5" y="-165" font-family="sans" font-size="10.00">get_LFN</text>
<text text-anchor="middle" x="363.5" y="-154" font-family="sans" font-size="10.00">MC: XiG</text>
</g>
<!-- 10&#45;&gt;9 -->
<g id="edge11" class="edge">
<title>10&#45;&gt;9</title>
<path fill="none" stroke="grey" stroke-width="2" d="M361.77,-143.7C361,-135.98 360.07,-126.71 359.21,-118.11"/>
<polygon fill="grey" stroke="grey" stroke-width="2" points="362.69,-117.71 358.21,-108.1 355.72,-118.4 362.69,-117.71"/>
</g>
<!-- 11 -->
<g id="node12" class="node">
<title>11</title>
<path fill="none" stroke="#56d8d8" stroke-width="2" stroke-dasharray="5,2" d="M457.5,-108C457.5,-108 425.5,-108 425.5,-108 419.5,-108 413.5,-102 413.5,-96 413.5,-96 413.5,-84 413.5,-84 413.5,-78 419.5,-72 425.5,-72 425.5,-72 457.5,-72 457.5,-72 463.5,-72 469.5,-78 469.5,-84 469.5,-84 469.5,-96 469.5,-96 469.5,-102 463.5,-108 457.5,-108"/>
<text text-anchor="middle" x="441.5" y="-87.5" font-family="sans" font-size="10.00">get_PFN</text>
</g>
<!-- 11&#45;&gt;0 -->
<g id="edge6" class="edge">
<title>11&#45;&gt;0</title>
<path fill="none" stroke="grey" stroke-width="2" d="M413.37,-78.9C406.86,-76.6 399.95,-74.19 393.5,-72 355.45,-59.08 312.19,-45.04 279.8,-34.66"/>
<polygon fill="grey" stroke="grey" stroke-width="2" points="280.71,-31.28 270.12,-31.56 278.58,-37.95 280.71,-31.28"/>
</g>
<!-- 12 -->
<g id="node13" class="node">
<title>12</title>
<path fill="none" stroke="#56d89a" stroke-width="2" stroke-dasharray="5,2" d="M477.5,-180C477.5,-180 421.5,-180 421.5,-180 415.5,-180 409.5,-174 409.5,-168 409.5,-168 409.5,-156 409.5,-156 409.5,-150 415.5,-144 421.5,-144 421.5,-144 477.5,-144 477.5,-144 483.5,-144 489.5,-150 489.5,-156 489.5,-156 489.5,-168 489.5,-168 489.5,-174 483.5,-180 477.5,-180"/>
<text text-anchor="middle" x="449.5" y="-165" font-family="sans" font-size="10.00">get_LFN</text>
<text text-anchor="middle" x="449.5" y="-154" font-family="sans" font-size="10.00">MC: OmegaG</text>
</g>
<!-- 12&#45;&gt;11 -->
<g id="edge12" class="edge">
<title>12&#45;&gt;11</title>
<path fill="none" stroke="grey" stroke-width="2" d="M447.52,-143.7C446.64,-135.98 445.58,-126.71 444.6,-118.11"/>
<polygon fill="grey" stroke="grey" stroke-width="2" points="448.07,-117.64 443.45,-108.1 441.11,-118.44 448.07,-117.64"/>
</g>
</g>
</svg>
