<?xml version="1.0" encoding="UTF-8" standalone="no"?>
<!DOCTYPE svg PUBLIC "-//W3C//DTD SVG 1.1//EN"
 "http://www.w3.org/Graphics/SVG/1.1/DTD/svg11.dtd">
<!-- Generated by graphviz version 2.47.1 (20210418.0311)
 -->
<!-- Title: snakemake_dag Pages: 1 -->
<svg width="602pt" height="332pt"
 viewBox="0.00 0.00 602.00 332.00" xmlns="http://www.w3.org/2000/svg" xmlns:xlink="http://www.w3.org/1999/xlink">
<g id="graph0" class="graph" transform="scale(1 1) rotate(0) translate(4 328)">
<title>snakemake_dag</title>
<polygon fill="white" stroke="transparent" points="-4,4 -4,-328 598,-328 598,4 -4,4"/>
<!-- 0 -->
<g id="node1" class="node">
<title>0</title>
<path fill="none" stroke="#d85656" stroke-width="2" d="M318.5,-36C318.5,-36 275.5,-36 275.5,-36 269.5,-36 263.5,-30 263.5,-24 263.5,-24 263.5,-12 263.5,-12 263.5,-6 269.5,0 275.5,0 275.5,0 318.5,0 318.5,0 324.5,0 330.5,-6 330.5,-12 330.5,-12 330.5,-24 330.5,-24 330.5,-30 324.5,-36 318.5,-36"/>
<text text-anchor="middle" x="297" y="-15.5" font-family="sans" font-size="10.00">alleffs_MA</text>
</g>
<!-- 1 -->
<g id="node2" class="node">
<title>1</title>
<path fill="none" stroke="#569ad8" stroke-width="2" stroke-dasharray="5,2" d="M72,-108C72,-108 12,-108 12,-108 6,-108 0,-102 0,-96 0,-96 0,-84 0,-84 0,-78 6,-72 12,-72 12,-72 72,-72 72,-72 78,-72 84,-78 84,-84 84,-84 84,-96 84,-96 84,-102 78,-108 72,-108"/>
<text text-anchor="middle" x="42" y="-87.5" font-family="sans" font-size="10.00">MA_efficience</text>
</g>
<!-- 1&#45;&gt;0 -->
<g id="edge1" class="edge">
<title>1&#45;&gt;0</title>
<path fill="none" stroke="grey" stroke-width="2" d="M84.23,-74.68C87.19,-73.75 90.14,-72.85 93,-72 147.94,-55.73 212,-39.53 253.46,-29.41"/>
<polygon fill="grey" stroke="grey" stroke-width="2" points="254.35,-32.79 263.24,-27.03 252.69,-25.99 254.35,-32.79"/>
</g>
<!-- 2 -->
<g id="node3" class="node">
<title>2</title>
<path fill="none" stroke="#d89556" stroke-width="2" stroke-dasharray="5,2" d="M61,-180C61,-180 23,-180 23,-180 17,-180 11,-174 11,-168 11,-168 11,-156 11,-156 11,-150 17,-144 23,-144 23,-144 61,-144 61,-144 67,-144 73,-150 73,-156 73,-156 73,-168 73,-168 73,-174 67,-180 61,-180"/>
<text text-anchor="middle" x="42" y="-159.5" font-family="sans" font-size="10.00">MA_tuple</text>
</g>
<!-- 2&#45;&gt;1 -->
<g id="edge7" class="edge">
<title>2&#45;&gt;1</title>
<path fill="none" stroke="grey" stroke-width="2" d="M42,-143.7C42,-135.98 42,-126.71 42,-118.11"/>
<polygon fill="grey" stroke="grey" stroke-width="2" points="45.5,-118.1 42,-108.1 38.5,-118.1 45.5,-118.1"/>
</g>
<!-- 3 -->
<g id="node4" class="node">
<title>3</title>
<path fill="none" stroke="#59d856" stroke-width="2" stroke-dasharray="5,2" d="M58,-252C58,-252 26,-252 26,-252 20,-252 14,-246 14,-240 14,-240 14,-228 14,-228 14,-222 20,-216 26,-216 26,-216 58,-216 58,-216 64,-216 70,-222 70,-228 70,-228 70,-240 70,-240 70,-246 64,-252 58,-252"/>
<text text-anchor="middle" x="42" y="-231.5" font-family="sans" font-size="10.00">get_PFN</text>
</g>
<!-- 3&#45;&gt;2 -->
<g id="edge8" class="edge">
<title>3&#45;&gt;2</title>
<path fill="none" stroke="grey" stroke-width="2" d="M42,-215.7C42,-207.98 42,-198.71 42,-190.11"/>
<polygon fill="grey" stroke="grey" stroke-width="2" points="45.5,-190.1 42,-180.1 38.5,-190.1 45.5,-190.1"/>
</g>
<!-- 4 -->
<g id="node5" class="node">
<title>4</title>
<path fill="none" stroke="#56d89a" stroke-width="2" stroke-dasharray="5,2" d="M60.5,-324C60.5,-324 23.5,-324 23.5,-324 17.5,-324 11.5,-318 11.5,-312 11.5,-312 11.5,-300 11.5,-300 11.5,-294 17.5,-288 23.5,-288 23.5,-288 60.5,-288 60.5,-288 66.5,-288 72.5,-294 72.5,-300 72.5,-300 72.5,-312 72.5,-312 72.5,-318 66.5,-324 60.5,-324"/>
<text text-anchor="middle" x="42" y="-309" font-family="sans" font-size="10.00">get_LFN</text>
<text text-anchor="middle" x="42" y="-298" font-family="sans" font-size="10.00">MC: KstG</text>
</g>
<!-- 4&#45;&gt;3 -->
<g id="edge9" class="edge">
<title>4&#45;&gt;3</title>
<path fill="none" stroke="grey" stroke-width="2" d="M42,-287.7C42,-279.98 42,-270.71 42,-262.11"/>
<polygon fill="grey" stroke="grey" stroke-width="2" points="45.5,-262.1 42,-252.1 38.5,-262.1 45.5,-262.1"/>
</g>
<!-- 5 -->
<g id="node6" class="node">
<title>5</title>
<path fill="none" stroke="#569ad8" stroke-width="2" d="M174,-108C174,-108 114,-108 114,-108 108,-108 102,-102 102,-96 102,-96 102,-84 102,-84 102,-78 108,-72 114,-72 114,-72 174,-72 174,-72 180,-72 186,-78 186,-84 186,-84 186,-96 186,-96 186,-102 180,-108 174,-108"/>
<text text-anchor="middle" x="144" y="-87.5" font-family="sans" font-size="10.00">MA_efficience</text>
</g>
<!-- 5&#45;&gt;0 -->
<g id="edge2" class="edge">
<title>5&#45;&gt;0</title>
<path fill="none" stroke="grey" stroke-width="2" d="M181.43,-71.88C203.43,-61.81 231.33,-49.04 254.21,-38.58"/>
<polygon fill="grey" stroke="grey" stroke-width="2" points="255.71,-41.74 263.35,-34.4 252.8,-35.37 255.71,-41.74"/>
</g>
<!-- 6 -->
<g id="node7" class="node">
<title>6</title>
<path fill="none" stroke="#d89556" stroke-width="2" d="M163,-180C163,-180 125,-180 125,-180 119,-180 113,-174 113,-168 113,-168 113,-156 113,-156 113,-150 119,-144 125,-144 125,-144 163,-144 163,-144 169,-144 175,-150 175,-156 175,-156 175,-168 175,-168 175,-174 169,-180 163,-180"/>
<text text-anchor="middle" x="144" y="-159.5" font-family="sans" font-size="10.00">MA_tuple</text>
</g>
<!-- 6&#45;&gt;5 -->
<g id="edge10" class="edge">
<title>6&#45;&gt;5</title>
<path fill="none" stroke="grey" stroke-width="2" d="M144,-143.7C144,-135.98 144,-126.71 144,-118.11"/>
<polygon fill="grey" stroke="grey" stroke-width="2" points="147.5,-118.1 144,-108.1 140.5,-118.1 147.5,-118.1"/>
</g>
<!-- 7 -->
<g id="node8" class="node">
<title>7</title>
<path fill="none" stroke="#59d856" stroke-width="2" stroke-dasharray="5,2" d="M160,-252C160,-252 128,-252 128,-252 122,-252 116,-246 116,-240 116,-240 116,-228 116,-228 116,-222 122,-216 128,-216 128,-216 160,-216 160,-216 166,-216 172,-222 172,-228 172,-228 172,-240 172,-240 172,-246 166,-252 160,-252"/>
<text text-anchor="middle" x="144" y="-231.5" font-family="sans" font-size="10.00">get_PFN</text>
</g>
<!-- 7&#45;&gt;6 -->
<g id="edge11" class="edge">
<title>7&#45;&gt;6</title>
<path fill="none" stroke="grey" stroke-width="2" d="M144,-215.7C144,-207.98 144,-198.71 144,-190.11"/>
<polygon fill="grey" stroke="grey" stroke-width="2" points="147.5,-190.1 144,-180.1 140.5,-190.1 147.5,-190.1"/>
</g>
<!-- 8 -->
<g id="node9" class="node">
<title>8</title>
<path fill="none" stroke="#56d89a" stroke-width="2" stroke-dasharray="5,2" d="M162,-324C162,-324 126,-324 126,-324 120,-324 114,-318 114,-312 114,-312 114,-300 114,-300 114,-294 120,-288 126,-288 126,-288 162,-288 162,-288 168,-288 174,-294 174,-300 174,-300 174,-312 174,-312 174,-318 168,-324 162,-324"/>
<text text-anchor="middle" x="144" y="-309" font-family="sans" font-size="10.00">get_LFN</text>
<text text-anchor="middle" x="144" y="-298" font-family="sans" font-size="10.00">MC: PhiG</text>
</g>
<!-- 8&#45;&gt;7 -->
<g id="edge12" class="edge">
<title>8&#45;&gt;7</title>
<path fill="none" stroke="grey" stroke-width="2" d="M144,-287.7C144,-279.98 144,-270.71 144,-262.11"/>
<polygon fill="grey" stroke="grey" stroke-width="2" points="147.5,-262.1 144,-252.1 140.5,-262.1 147.5,-262.1"/>
</g>
<!-- 9 -->
<g id="node10" class="node">
<title>9</title>
<path fill="none" stroke="#569ad8" stroke-width="2" d="M276,-108C276,-108 216,-108 216,-108 210,-108 204,-102 204,-96 204,-96 204,-84 204,-84 204,-78 210,-72 216,-72 216,-72 276,-72 276,-72 282,-72 288,-78 288,-84 288,-84 288,-96 288,-96 288,-102 282,-108 276,-108"/>
<text text-anchor="middle" x="246" y="-87.5" font-family="sans" font-size="10.00">MA_efficience</text>
</g>
<!-- 9&#45;&gt;0 -->
<g id="edge3" class="edge">
<title>9&#45;&gt;0</title>
<path fill="none" stroke="grey" stroke-width="2" d="M258.61,-71.7C264.6,-63.47 271.88,-53.48 278.48,-44.42"/>
<polygon fill="grey" stroke="grey" stroke-width="2" points="281.48,-46.25 284.54,-36.1 275.82,-42.13 281.48,-46.25"/>
</g>
<!-- 10 -->
<g id="node11" class="node">
<title>10</title>
<path fill="none" stroke="#d89556" stroke-width="2" d="M265,-180C265,-180 227,-180 227,-180 221,-180 215,-174 215,-168 215,-168 215,-156 215,-156 215,-150 221,-144 227,-144 227,-144 265,-144 265,-144 271,-144 277,-150 277,-156 277,-156 277,-168 277,-168 277,-174 271,-180 265,-180"/>
<text text-anchor="middle" x="246" y="-159.5" font-family="sans" font-size="10.00">MA_tuple</text>
</g>
<!-- 10&#45;&gt;9 -->
<g id="edge13" class="edge">
<title>10&#45;&gt;9</title>
<path fill="none" stroke="grey" stroke-width="2" d="M246,-143.7C246,-135.98 246,-126.71 246,-118.11"/>
<polygon fill="grey" stroke="grey" stroke-width="2" points="249.5,-118.1 246,-108.1 242.5,-118.1 249.5,-118.1"/>
</g>
<!-- 11 -->
<g id="node12" class="node">
<title>11</title>
<path fill="none" stroke="#59d856" stroke-width="2" stroke-dasharray="5,2" d="M262,-252C262,-252 230,-252 230,-252 224,-252 218,-246 218,-240 218,-240 218,-228 218,-228 218,-222 224,-216 230,-216 230,-216 262,-216 262,-216 268,-216 274,-222 274,-228 274,-228 274,-240 274,-240 274,-246 268,-252 262,-252"/>
<text text-anchor="middle" x="246" y="-231.5" font-family="sans" font-size="10.00">get_PFN</text>
</g>
<!-- 11&#45;&gt;10 -->
<g id="edge14" class="edge">
<title>11&#45;&gt;10</title>
<path fill="none" stroke="grey" stroke-width="2" d="M246,-215.7C246,-207.98 246,-198.71 246,-190.11"/>
<polygon fill="grey" stroke="grey" stroke-width="2" points="249.5,-190.1 246,-180.1 242.5,-190.1 249.5,-190.1"/>
</g>
<!-- 12 -->
<g id="node13" class="node">
<title>12</title>
<path fill="none" stroke="#56d89a" stroke-width="2" stroke-dasharray="5,2" d="M263,-324C263,-324 229,-324 229,-324 223,-324 217,-318 217,-312 217,-312 217,-300 217,-300 217,-294 223,-288 229,-288 229,-288 263,-288 263,-288 269,-288 275,-294 275,-300 275,-300 275,-312 275,-312 275,-318 269,-324 263,-324"/>
<text text-anchor="middle" x="246" y="-309" font-family="sans" font-size="10.00">get_LFN</text>
<text text-anchor="middle" x="246" y="-298" font-family="sans" font-size="10.00">MC: K1G</text>
</g>
<!-- 12&#45;&gt;11 -->
<g id="edge15" class="edge">
<title>12&#45;&gt;11</title>
<path fill="none" stroke="grey" stroke-width="2" d="M246,-287.7C246,-279.98 246,-270.71 246,-262.11"/>
<polygon fill="grey" stroke="grey" stroke-width="2" points="249.5,-262.1 246,-252.1 242.5,-262.1 249.5,-262.1"/>
</g>
<!-- 13 -->
<g id="node14" class="node">
<title>13</title>
<path fill="none" stroke="#569ad8" stroke-width="2" d="M378,-108C378,-108 318,-108 318,-108 312,-108 306,-102 306,-96 306,-96 306,-84 306,-84 306,-78 312,-72 318,-72 318,-72 378,-72 378,-72 384,-72 390,-78 390,-84 390,-84 390,-96 390,-96 390,-102 384,-108 378,-108"/>
<text text-anchor="middle" x="348" y="-87.5" font-family="sans" font-size="10.00">MA_efficience</text>
</g>
<!-- 13&#45;&gt;0 -->
<g id="edge4" class="edge">
<title>13&#45;&gt;0</title>
<path fill="none" stroke="grey" stroke-width="2" d="M335.39,-71.7C329.4,-63.47 322.12,-53.48 315.52,-44.42"/>
<polygon fill="grey" stroke="grey" stroke-width="2" points="318.18,-42.13 309.46,-36.1 312.52,-46.25 318.18,-42.13"/>
</g>
<!-- 14 -->
<g id="node15" class="node">
<title>14</title>
<path fill="none" stroke="#d89556" stroke-width="2" d="M367,-180C367,-180 329,-180 329,-180 323,-180 317,-174 317,-168 317,-168 317,-156 317,-156 317,-150 323,-144 329,-144 329,-144 367,-144 367,-144 373,-144 379,-150 379,-156 379,-156 379,-168 379,-168 379,-174 373,-180 367,-180"/>
<text text-anchor="middle" x="348" y="-159.5" font-family="sans" font-size="10.00">MA_tuple</text>
</g>
<!-- 14&#45;&gt;13 -->
<g id="edge16" class="edge">
<title>14&#45;&gt;13</title>
<path fill="none" stroke="grey" stroke-width="2" d="M348,-143.7C348,-135.98 348,-126.71 348,-118.11"/>
<polygon fill="grey" stroke="grey" stroke-width="2" points="351.5,-118.1 348,-108.1 344.5,-118.1 351.5,-118.1"/>
</g>
<!-- 15 -->
<g id="node16" class="node">
<title>15</title>
<path fill="none" stroke="#59d856" stroke-width="2" stroke-dasharray="5,2" d="M364,-252C364,-252 332,-252 332,-252 326,-252 320,-246 320,-240 320,-240 320,-228 320,-228 320,-222 326,-216 332,-216 332,-216 364,-216 364,-216 370,-216 376,-222 376,-228 376,-228 376,-240 376,-240 376,-246 370,-252 364,-252"/>
<text text-anchor="middle" x="348" y="-231.5" font-family="sans" font-size="10.00">get_PFN</text>
</g>
<!-- 15&#45;&gt;14 -->
<g id="edge17" class="edge">
<title>15&#45;&gt;14</title>
<path fill="none" stroke="grey" stroke-width="2" d="M348,-215.7C348,-207.98 348,-198.71 348,-190.11"/>
<polygon fill="grey" stroke="grey" stroke-width="2" points="351.5,-190.1 348,-180.1 344.5,-190.1 351.5,-190.1"/>
</g>
<!-- 16 -->
<g id="node17" class="node">
<title>16</title>
<path fill="none" stroke="#56d89a" stroke-width="2" stroke-dasharray="5,2" d="M378,-324C378,-324 318,-324 318,-324 312,-324 306,-318 306,-312 306,-312 306,-300 306,-300 306,-294 312,-288 318,-288 318,-288 378,-288 378,-288 384,-288 390,-294 390,-300 390,-300 390,-312 390,-312 390,-318 384,-324 378,-324"/>
<text text-anchor="middle" x="348" y="-309" font-family="sans" font-size="10.00">get_LFN</text>
<text text-anchor="middle" x="348" y="-298" font-family="sans" font-size="10.00">MC: LambdaG</text>
</g>
<!-- 16&#45;&gt;15 -->
<g id="edge18" class="edge">
<title>16&#45;&gt;15</title>
<path fill="none" stroke="grey" stroke-width="2" d="M348,-287.7C348,-279.98 348,-270.71 348,-262.11"/>
<polygon fill="grey" stroke="grey" stroke-width="2" points="351.5,-262.1 348,-252.1 344.5,-262.1 351.5,-262.1"/>
</g>
<!-- 17 -->
<g id="node18" class="node">
<title>17</title>
<path fill="none" stroke="#569ad8" stroke-width="2" d="M480,-108C480,-108 420,-108 420,-108 414,-108 408,-102 408,-96 408,-96 408,-84 408,-84 408,-78 414,-72 420,-72 420,-72 480,-72 480,-72 486,-72 492,-78 492,-84 492,-84 492,-96 492,-96 492,-102 486,-108 480,-108"/>
<text text-anchor="middle" x="450" y="-87.5" font-family="sans" font-size="10.00">MA_efficience</text>
</g>
<!-- 17&#45;&gt;0 -->
<g id="edge5" class="edge">
<title>17&#45;&gt;0</title>
<path fill="none" stroke="grey" stroke-width="2" d="M412.57,-71.88C390.57,-61.81 362.67,-49.04 339.79,-38.58"/>
<polygon fill="grey" stroke="grey" stroke-width="2" points="341.2,-35.37 330.65,-34.4 338.29,-41.74 341.2,-35.37"/>
</g>
<!-- 18 -->
<g id="node19" class="node">
<title>18</title>
<path fill="none" stroke="#d89556" stroke-width="2" d="M469,-180C469,-180 431,-180 431,-180 425,-180 419,-174 419,-168 419,-168 419,-156 419,-156 419,-150 425,-144 431,-144 431,-144 469,-144 469,-144 475,-144 481,-150 481,-156 481,-156 481,-168 481,-168 481,-174 475,-180 469,-180"/>
<text text-anchor="middle" x="450" y="-159.5" font-family="sans" font-size="10.00">MA_tuple</text>
</g>
<!-- 18&#45;&gt;17 -->
<g id="edge19" class="edge">
<title>18&#45;&gt;17</title>
<path fill="none" stroke="grey" stroke-width="2" d="M450,-143.7C450,-135.98 450,-126.71 450,-118.11"/>
<polygon fill="grey" stroke="grey" stroke-width="2" points="453.5,-118.1 450,-108.1 446.5,-118.1 453.5,-118.1"/>
</g>
<!-- 19 -->
<g id="node20" class="node">
<title>19</title>
<path fill="none" stroke="#59d856" stroke-width="2" stroke-dasharray="5,2" d="M466,-252C466,-252 434,-252 434,-252 428,-252 422,-246 422,-240 422,-240 422,-228 422,-228 422,-222 428,-216 434,-216 434,-216 466,-216 466,-216 472,-216 478,-222 478,-228 478,-228 478,-240 478,-240 478,-246 472,-252 466,-252"/>
<text text-anchor="middle" x="450" y="-231.5" font-family="sans" font-size="10.00">get_PFN</text>
</g>
<!-- 19&#45;&gt;18 -->
<g id="edge20" class="edge">
<title>19&#45;&gt;18</title>
<path fill="none" stroke="grey" stroke-width="2" d="M450,-215.7C450,-207.98 450,-198.71 450,-190.11"/>
<polygon fill="grey" stroke="grey" stroke-width="2" points="453.5,-190.1 450,-180.1 446.5,-190.1 453.5,-190.1"/>
</g>
<!-- 20 -->
<g id="node21" class="node">
<title>20</title>
<path fill="none" stroke="#56d89a" stroke-width="2" stroke-dasharray="5,2" d="M466,-324C466,-324 434,-324 434,-324 428,-324 422,-318 422,-312 422,-312 422,-300 422,-300 422,-294 428,-288 434,-288 434,-288 466,-288 466,-288 472,-288 478,-294 478,-300 478,-300 478,-312 478,-312 478,-318 472,-324 466,-324"/>
<text text-anchor="middle" x="450" y="-309" font-family="sans" font-size="10.00">get_LFN</text>
<text text-anchor="middle" x="450" y="-298" font-family="sans" font-size="10.00">MC: XiG</text>
</g>
<!-- 20&#45;&gt;19 -->
<g id="edge21" class="edge">
<title>20&#45;&gt;19</title>
<path fill="none" stroke="grey" stroke-width="2" d="M450,-287.7C450,-279.98 450,-270.71 450,-262.11"/>
<polygon fill="grey" stroke="grey" stroke-width="2" points="453.5,-262.1 450,-252.1 446.5,-262.1 453.5,-262.1"/>
</g>
<!-- 21 -->
<g id="node22" class="node">
<title>21</title>
<path fill="none" stroke="#569ad8" stroke-width="2" d="M582,-108C582,-108 522,-108 522,-108 516,-108 510,-102 510,-96 510,-96 510,-84 510,-84 510,-78 516,-72 522,-72 522,-72 582,-72 582,-72 588,-72 594,-78 594,-84 594,-84 594,-96 594,-96 594,-102 588,-108 582,-108"/>
<text text-anchor="middle" x="552" y="-87.5" font-family="sans" font-size="10.00">MA_efficience</text>
</g>
<!-- 21&#45;&gt;0 -->
<g id="edge6" class="edge">
<title>21&#45;&gt;0</title>
<path fill="none" stroke="grey" stroke-width="2" d="M509.77,-74.68C506.81,-73.75 503.86,-72.85 501,-72 446.06,-55.73 382,-39.53 340.54,-29.41"/>
<polygon fill="grey" stroke="grey" stroke-width="2" points="341.31,-25.99 330.76,-27.03 339.65,-32.79 341.31,-25.99"/>
</g>
<!-- 22 -->
<g id="node23" class="node">
<title>22</title>
<path fill="none" stroke="#d89556" stroke-width="2" d="M571,-180C571,-180 533,-180 533,-180 527,-180 521,-174 521,-168 521,-168 521,-156 521,-156 521,-150 527,-144 533,-144 533,-144 571,-144 571,-144 577,-144 583,-150 583,-156 583,-156 583,-168 583,-168 583,-174 577,-180 571,-180"/>
<text text-anchor="middle" x="552" y="-159.5" font-family="sans" font-size="10.00">MA_tuple</text>
</g>
<!-- 22&#45;&gt;21 -->
<g id="edge22" class="edge">
<title>22&#45;&gt;21</title>
<path fill="none" stroke="grey" stroke-width="2" d="M552,-143.7C552,-135.98 552,-126.71 552,-118.11"/>
<polygon fill="grey" stroke="grey" stroke-width="2" points="555.5,-118.1 552,-108.1 548.5,-118.1 555.5,-118.1"/>
</g>
<!-- 23 -->
<g id="node24" class="node">
<title>23</title>
<path fill="none" stroke="#59d856" stroke-width="2" stroke-dasharray="5,2" d="M568,-252C568,-252 536,-252 536,-252 530,-252 524,-246 524,-240 524,-240 524,-228 524,-228 524,-222 530,-216 536,-216 536,-216 568,-216 568,-216 574,-216 580,-222 580,-228 580,-228 580,-240 580,-240 580,-246 574,-252 568,-252"/>
<text text-anchor="middle" x="552" y="-231.5" font-family="sans" font-size="10.00">get_PFN</text>
</g>
<!-- 23&#45;&gt;22 -->
<g id="edge23" class="edge">
<title>23&#45;&gt;22</title>
<path fill="none" stroke="grey" stroke-width="2" d="M552,-215.7C552,-207.98 552,-198.71 552,-190.11"/>
<polygon fill="grey" stroke="grey" stroke-width="2" points="555.5,-190.1 552,-180.1 548.5,-190.1 555.5,-190.1"/>
</g>
<!-- 24 -->
<g id="node25" class="node">
<title>24</title>
<path fill="none" stroke="#56d89a" stroke-width="2" stroke-dasharray="5,2" d="M580,-324C580,-324 524,-324 524,-324 518,-324 512,-318 512,-312 512,-312 512,-300 512,-300 512,-294 518,-288 524,-288 524,-288 580,-288 580,-288 586,-288 592,-294 592,-300 592,-300 592,-312 592,-312 592,-318 586,-324 580,-324"/>
<text text-anchor="middle" x="552" y="-309" font-family="sans" font-size="10.00">get_LFN</text>
<text text-anchor="middle" x="552" y="-298" font-family="sans" font-size="10.00">MC: OmegaG</text>
</g>
<!-- 24&#45;&gt;23 -->
<g id="edge24" class="edge">
<title>24&#45;&gt;23</title>
<path fill="none" stroke="grey" stroke-width="2" d="M552,-287.7C552,-279.98 552,-270.71 552,-262.11"/>
<polygon fill="grey" stroke="grey" stroke-width="2" points="555.5,-262.1 552,-252.1 548.5,-262.1 555.5,-262.1"/>
</g>
</g>
</svg>
